<svg version="1.1" viewBox="0.0 0.0 645.0 303.0" fill="none" stroke="none" stroke-linecap="square" stroke-miterlimit="10" xmlns:xlink="http://www.w3.org/1999/xlink" xmlns="http://www.w3.org/2000/svg"><clipPath id="p.0"><path d="m0 0l645.0 0l0 303.0l-645.0 0l0 -303.0z" clip-rule="nonzero"/></clipPath><g clip-path="url(#p.0)"><path fill="#000000" fill-opacity="0.0" d="m0 0l645.0 0l0 303.0l-645.0 0z" fill-rule="evenodd"/><path fill="#000000" fill-opacity="0.0" d="m102.03674 53.874016l50.771652 0l0 223.77951l-50.771652 0z" fill-rule="evenodd"/><path stroke="#000000" stroke-width="3.0" stroke-linejoin="round" stroke-linecap="butt" d="m102.03674 53.874016l50.771652 0l0 223.77951l-50.771652 0z" fill-rule="evenodd"/><path fill="#000000" fill-opacity="0.0" d="m211.86351 53.874016l117.03938 0l0 223.77951l-117.03938 0z" fill-rule="evenodd"/><path stroke="#000000" stroke-width="3.0" stroke-linejoin="round" stroke-linecap="butt" d="m211.86351 53.874016l117.03938 0l0 223.77951l-117.03938 0z" fill-rule="evenodd"/><path fill="#000000" fill-opacity="0.0" d="m387.958 53.874016l50.771637 0l0 223.77951l-50.771637 0z" fill-rule="evenodd"/><path stroke="#000000" stroke-width="3.0" stroke-linejoin="round" stroke-linecap="butt" d="m387.958 53.874016l50.771637 0l0 223.77951l-50.771637 0z" fill-rule="evenodd"/><path fill="#000000" fill-opacity="0.0" d="m42.98163 93.244095l59.055115 1.0393677" fill-rule="evenodd"/><path stroke="#000000" stroke-width="2.0" stroke-linejoin="round" stroke-linecap="butt" d="m42.98163 93.244095l47.056976 0.8282089" fill-rule="evenodd"/><path fill="#000000" stroke="#000000" stroke-width="2.0" stroke-linecap="butt" d="m89.98047 97.37525l9.132927 -3.143242l-9.016663 -3.4626694z" fill-rule="evenodd"/><path fill="#000000" fill-opacity="0.0" d="m42.98163 65.27034l59.055115 1.0393677" fill-rule="evenodd"/><path stroke="#000000" stroke-width="2.0" stroke-linejoin="round" stroke-linecap="butt" d="m42.98163 65.27034l47.056976 0.8282013" fill-rule="evenodd"/><path fill="#000000" stroke="#000000" stroke-width="2.0" stroke-linecap="butt" d="m89.98047 69.4015l9.132927 -3.1432343l-9.016663 -3.4626732z" fill-rule="evenodd"/><path fill="#000000" fill-opacity="0.0" d="m42.98163 79.255905l59.055115 1.0393677" fill-rule="evenodd"/><path stroke="#000000" stroke-width="2.0" stroke-linejoin="round" stroke-linecap="butt" d="m42.98163 79.255905l47.056976 0.8282013" fill-rule="evenodd"/><path fill="#000000" stroke="#000000" stroke-width="2.0" stroke-linecap="butt" d="m89.98047 83.38706l9.132927 -3.1432343l-9.016663 -3.4626694z" fill-rule="evenodd"/><path fill="#000000" fill-opacity="0.0" d="m42.98163 263.60367l59.055115 1.0393677" fill-rule="evenodd"/><path stroke="#000000" stroke-width="2.0" stroke-linejoin="round" stroke-linecap="butt" d="m42.98163 263.60367l47.056976 0.82821655" fill-rule="evenodd"/><path fill="#000000" stroke="#000000" stroke-width="2.0" stroke-linecap="butt" d="m89.98047 267.73483l9.132927 -3.1432495l-9.016663 -3.4626465z" fill-rule="evenodd"/><path fill="#000000" fill-opacity="0.0" d="m42.98163 235.62993l59.055115 1.0393677" fill-rule="evenodd"/><path stroke="#000000" stroke-width="2.0" stroke-linejoin="round" stroke-linecap="butt" d="m42.98163 235.62993l47.056976 0.8282013" fill-rule="evenodd"/><path fill="#000000" stroke="#000000" stroke-width="2.0" stroke-linecap="butt" d="m89.98047 239.76108l9.132927 -3.1432343l-9.016663 -3.462677z" fill-rule="evenodd"/><path fill="#000000" fill-opacity="0.0" d="m42.98163 249.61548l59.055115 1.0393829" fill-rule="evenodd"/><path stroke="#000000" stroke-width="2.0" stroke-linejoin="round" stroke-linecap="butt" d="m42.98163 249.61548l47.056976 0.82821655" fill-rule="evenodd"/><path fill="#000000" stroke="#000000" stroke-width="2.0" stroke-linecap="butt" d="m89.98047 253.74664l9.132927 -3.1432343l-9.016663 -3.462677z" fill-rule="evenodd"/><path fill="#000000" fill-opacity="0.0" d="m152.8084 92.20473l59.055115 1.0393677" fill-rule="evenodd"/><path stroke="#000000" stroke-width="2.0" stroke-linejoin="round" stroke-linecap="butt" d="m152.8084 92.20473l47.05699 0.8282013" fill-rule="evenodd"/><path fill="#000000" stroke="#000000" stroke-width="2.0" stroke-linecap="butt" d="m199.80725 96.335884l9.132919 -3.143242l-9.016663 -3.4626694z" fill-rule="evenodd"/><path fill="#000000" fill-opacity="0.0" d="m152.8084 64.23097l59.055115 1.0393677" fill-rule="evenodd"/><path stroke="#000000" stroke-width="2.0" stroke-linejoin="round" stroke-linecap="butt" d="m152.8084 64.23097l47.05699 0.8282013" fill-rule="evenodd"/><path fill="#000000" stroke="#000000" stroke-width="2.0" stroke-linecap="butt" d="m199.80725 68.36213l9.132919 -3.143242l-9.016663 -3.4626656z" fill-rule="evenodd"/><path fill="#000000" fill-opacity="0.0" d="m152.8084 78.21654l59.055115 1.0393677" fill-rule="evenodd"/><path stroke="#000000" stroke-width="2.0" stroke-linejoin="round" stroke-linecap="butt" d="m152.8084 78.21654l47.05699 0.8282013" fill-rule="evenodd"/><path fill="#000000" stroke="#000000" stroke-width="2.0" stroke-linecap="butt" d="m199.80725 82.347694l9.132919 -3.143242l-9.016663 -3.4626694z" fill-rule="evenodd"/><path fill="#000000" fill-opacity="0.0" d="m152.8084 263.60367l59.055115 1.0393677" fill-rule="evenodd"/><path stroke="#000000" stroke-width="2.0" stroke-linejoin="round" stroke-linecap="butt" d="m152.8084 263.60367l47.05699 0.82821655" fill-rule="evenodd"/><path fill="#000000" stroke="#000000" stroke-width="2.0" stroke-linecap="butt" d="m199.80725 267.73483l9.132919 -3.1432495l-9.016663 -3.4626465z" fill-rule="evenodd"/><path fill="#000000" fill-opacity="0.0" d="m152.8084 235.62993l59.055115 1.0393677" fill-rule="evenodd"/><path stroke="#000000" stroke-width="2.0" stroke-linejoin="round" stroke-linecap="butt" d="m152.8084 235.62993l47.05699 0.8282013" fill-rule="evenodd"/><path fill="#000000" stroke="#000000" stroke-width="2.0" stroke-linecap="butt" d="m199.80725 239.76108l9.132919 -3.1432343l-9.016663 -3.462677z" fill-rule="evenodd"/><path fill="#000000" fill-opacity="0.0" d="m152.8084 249.61548l59.055115 1.0393829" fill-rule="evenodd"/><path stroke="#000000" stroke-width="2.0" stroke-linejoin="round" stroke-linecap="butt" d="m152.8084 249.61548l47.05699 0.82821655" fill-rule="evenodd"/><path fill="#000000" stroke="#000000" stroke-width="2.0" stroke-linecap="butt" d="m199.80725 253.74664l9.132919 -3.1432343l-9.016663 -3.462677z" fill-rule="evenodd"/><path fill="#000000" fill-opacity="0.0" d="m328.9029 94.28346l59.055115 1.0393753" fill-rule="evenodd"/><path stroke="#000000" stroke-width="2.0" stroke-linejoin="round" stroke-linecap="butt" d="m328.9029 94.28346l47.056946 0.8282089" fill-rule="evenodd"/><path fill="#000000" stroke="#000000" stroke-width="2.0" stroke-linecap="butt" d="m375.90173 98.41462l9.132935 -3.1432343l-9.016663 -3.4626694z" fill-rule="evenodd"/><path fill="#000000" fill-opacity="0.0" d="m328.9029 66.30971l59.055115 1.0393753" fill-rule="evenodd"/><path stroke="#000000" stroke-width="2.0" stroke-linejoin="round" stroke-linecap="butt" d="m328.9029 66.30971l47.056946 0.8282089" fill-rule="evenodd"/><path fill="#000000" stroke="#000000" stroke-width="2.0" stroke-linecap="butt" d="m375.90173 70.440865l9.132935 -3.1432343l-9.016663 -3.4626694z" fill-rule="evenodd"/><path fill="#000000" fill-opacity="0.0" d="m328.9029 80.29527l59.055115 1.0393753" fill-rule="evenodd"/><path stroke="#000000" stroke-width="2.0" stroke-linejoin="round" stroke-linecap="butt" d="m328.9029 80.29527l47.056946 0.8282013" fill-rule="evenodd"/><path fill="#000000" stroke="#000000" stroke-width="2.0" stroke-linecap="butt" d="m375.90173 84.42643l9.132935 -3.1432343l-9.016663 -3.4626694z" fill-rule="evenodd"/><path fill="#000000" fill-opacity="0.0" d="m328.9029 263.60367l59.055115 1.0393677" fill-rule="evenodd"/><path stroke="#000000" stroke-width="2.0" stroke-linejoin="round" stroke-linecap="butt" d="m328.9029 263.60367l47.056946 0.82821655" fill-rule="evenodd"/><path fill="#000000" stroke="#000000" stroke-width="2.0" stroke-linecap="butt" d="m375.90173 267.73483l9.132935 -3.1432495l-9.016663 -3.4626465z" fill-rule="evenodd"/><path fill="#000000" fill-opacity="0.0" d="m328.9029 235.62993l59.055115 1.0393677" fill-rule="evenodd"/><path stroke="#000000" stroke-width="2.0" stroke-linejoin="round" stroke-linecap="butt" d="m328.9029 235.62993l47.056946 0.8282013" fill-rule="evenodd"/><path fill="#000000" stroke="#000000" stroke-width="2.0" stroke-linecap="butt" d="m375.90173 239.76108l9.132935 -3.1432343l-9.016663 -3.462677z" fill-rule="evenodd"/><path fill="#000000" fill-opacity="0.0" d="m328.9029 249.61548l59.055115 1.0393829" fill-rule="evenodd"/><path stroke="#000000" stroke-width="2.0" stroke-linejoin="round" stroke-linecap="butt" d="m328.9029 249.61548l47.056946 0.82821655" fill-rule="evenodd"/><path fill="#000000" stroke="#000000" stroke-width="2.0" stroke-linecap="butt" d="m375.90173 253.74664l9.132935 -3.1432343l-9.016663 -3.462677z" fill-rule="evenodd"/><path fill="#000000" fill-opacity="0.0" d="m466.12598 8.803149l173.00787 0l0 45.070866l-173.00787 0z" fill-rule="evenodd"/><path fill="#000000" d="m515.0315 31.035648l1.765625 0.453125q-0.5625 2.171875 -2.0 3.328125q-1.4375 1.140625 -3.53125 1.140625q-2.15625 0 -3.515625 -0.875q-1.34375 -0.890625 -2.0625 -2.546875q-0.703125 -1.671875 -0.703125 -3.59375q0 -2.078125 0.796875 -3.625q0.796875 -1.5625 2.265625 -2.359375q1.484375 -0.8125 3.25 -0.8125q2.0 0 3.359375 1.015625q1.375 1.015625 1.90625 2.875l-1.734375 0.40625q-0.46875 -1.453125 -1.359375 -2.109375q-0.875 -0.671875 -2.203125 -0.671875q-1.546875 0 -2.578125 0.734375q-1.03125 0.734375 -1.453125 1.984375q-0.421875 1.234375 -0.421875 2.5625q0 1.703125 0.5 2.96875q0.5 1.265625 1.546875 1.90625q1.046875 0.625 2.265625 0.625q1.484375 0 2.515625 -0.859375q1.03125 -0.859375 1.390625 -2.546875zm3.1292114 -0.15625q0 -2.6875 1.484375 -3.96875q1.25 -1.078125 3.046875 -1.078125q2.0 0 3.265625 1.3125q1.265625 1.296875 1.265625 3.609375q0 1.859375 -0.5625 2.9375q-0.5625 1.0625 -1.640625 1.65625q-1.0625 0.59375 -2.328125 0.59375q-2.03125 0 -3.28125 -1.296875q-1.25 -1.3125 -1.25 -3.765625zm1.6875 0q0 1.859375 0.796875 2.796875q0.8125 0.921875 2.046875 0.921875q1.21875 0 2.03125 -0.921875q0.8125 -0.9375 0.8125 -2.84375q0 -1.796875 -0.8125 -2.71875q-0.8125 -0.921875 -2.03125 -0.921875q-1.234375 0 -2.046875 0.921875q-0.796875 0.90625 -0.796875 2.765625zm15.922546 1.734375l1.6875 0.203125q-0.40625 1.484375 -1.484375 2.3125q-1.078125 0.8125 -2.765625 0.8125q-2.125 0 -3.375 -1.296875q-1.234375 -1.3125 -1.234375 -3.671875q0 -2.453125 1.25 -3.796875q1.265625 -1.34375 3.265625 -1.34375q1.9375 0 3.15625 1.328125q1.234375 1.3125 1.234375 3.703125q0 0.15625 0 0.4375l-7.21875 0q0.09375 1.59375 0.90625 2.453125q0.8125 0.84375 2.015625 0.84375q0.90625 0 1.546875 -0.46875q0.640625 -0.484375 1.015625 -1.515625zm-5.390625 -2.65625l5.40625 0q-0.109375 -1.21875 -0.625 -1.828125q-0.78125 -0.953125 -2.03125 -0.953125q-1.125 0 -1.90625 0.765625q-0.765625 0.75 -0.84375 2.015625zm9.531982 5.765625l0 -8.40625l-1.453125 0l0 -1.265625l1.453125 0l0 -1.03125q0 -0.96875 0.171875 -1.453125q0.234375 -0.640625 0.828125 -1.03125q0.59375 -0.390625 1.671875 -0.390625q0.6875 0 1.53125 0.15625l-0.25 1.4375q-0.5 -0.09375 -0.953125 -0.09375q-0.75 0 -1.0625 0.328125q-0.3125 0.3125 -0.3125 1.1875l0 0.890625l1.890625 0l0 1.265625l-1.890625 0l0 8.40625l-1.625 0zm4.8460693 0l0 -8.40625l-1.453125 0l0 -1.265625l1.453125 0l0 -1.03125q0 -0.96875 0.171875 -1.453125q0.234375 -0.640625 0.828125 -1.03125q0.59375 -0.390625 1.671875 -0.390625q0.6875 0 1.53125 0.15625l-0.25 1.4375q-0.5 -0.09375 -0.953125 -0.09375q-0.75 0 -1.0625 0.328125q-0.3125 0.3125 -0.3125 1.1875l0 0.890625l1.890625 0l0 1.265625l-1.890625 0l0 8.40625l-1.625 0zm4.7926636 -11.46875l0 -1.890625l1.640625 0l0 1.890625l-1.640625 0zm0 11.46875l0 -9.671875l1.640625 0l0 9.671875l-1.640625 0zm10.457336 -3.546875l1.609375 0.21875q-0.265625 1.65625 -1.359375 2.609375q-1.078125 0.9375 -2.671875 0.9375q-1.984375 0 -3.1875 -1.296875q-1.203125 -1.296875 -1.203125 -3.71875q0 -1.578125 0.515625 -2.75q0.515625 -1.171875 1.578125 -1.75q1.0625 -0.59375 2.3125 -0.59375q1.578125 0 2.578125 0.796875q1.0 0.796875 1.28125 2.265625l-1.59375 0.234375q-0.234375 -0.96875 -0.8125 -1.453125q-0.578125 -0.5 -1.390625 -0.5q-1.234375 0 -2.015625 0.890625q-0.78125 0.890625 -0.78125 2.8125q0 1.953125 0.75 2.84375q0.75 0.875 1.953125 0.875q0.96875 0 1.609375 -0.59375q0.65625 -0.59375 0.828125 -1.828125zm3.015625 -7.921875l0 -1.890625l1.640625 0l0 1.890625l-1.640625 0zm0 11.46875l0 -9.671875l1.640625 0l0 9.671875l-1.640625 0zm10.769836 -3.109375l1.6875 0.203125q-0.40625 1.484375 -1.484375 2.3125q-1.078125 0.8125 -2.765625 0.8125q-2.125 0 -3.375 -1.296875q-1.234375 -1.3125 -1.234375 -3.671875q0 -2.453125 1.25 -3.796875q1.265625 -1.34375 3.265625 -1.34375q1.9375 0 3.15625 1.328125q1.234375 1.3125 1.234375 3.703125q0 0.15625 0 0.4375l-7.21875 0q0.09375 1.59375 0.90625 2.453125q0.8125 0.84375 2.015625 0.84375q0.90625 0 1.546875 -0.46875q0.640625 -0.484375 1.015625 -1.515625zm-5.390625 -2.65625l5.40625 0q-0.109375 -1.21875 -0.625 -1.828125q-0.78125 -0.953125 -2.03125 -0.953125q-1.125 0 -1.90625 0.765625q-0.765625 0.75 -0.84375 2.015625zm9.141357 5.765625l0 -9.671875l1.46875 0l0 1.375q1.0625 -1.59375 3.078125 -1.59375q0.875 0 1.609375 0.3125q0.734375 0.3125 1.09375 0.828125q0.375 0.5 0.515625 1.203125q0.09375 0.453125 0.09375 1.59375l0 5.953125l-1.640625 0l0 -5.890625q0 -1.0 -0.203125 -1.484375q-0.1875 -0.5 -0.671875 -0.796875q-0.484375 -0.296875 -1.140625 -0.296875q-1.046875 0 -1.8125 0.671875q-0.75 0.65625 -0.75 2.515625l0 5.28125l-1.640625 0zm13.953796 -1.46875l0.234375 1.453125q-0.6875 0.140625 -1.234375 0.140625q-0.890625 0 -1.390625 -0.28125q-0.484375 -0.28125 -0.6875 -0.734375q-0.203125 -0.46875 -0.203125 -1.9375l0 -5.578125l-1.203125 0l0 -1.265625l1.203125 0l0 -2.390625l1.625 -0.984375l0 3.375l1.65625 0l0 1.265625l-1.65625 0l0 5.671875q0 0.6875 0.078125 0.890625q0.09375 0.203125 0.28125 0.328125q0.203125 0.109375 0.578125 0.109375q0.265625 0 0.71875 -0.0625zm0.9489746 -1.421875l1.625 -0.25q0.125 0.96875 0.75 1.5q0.625 0.515625 1.75 0.515625q1.125 0 1.671875 -0.453125q0.546875 -0.46875 0.546875 -1.09375q0 -0.546875 -0.484375 -0.875q-0.328125 -0.21875 -1.671875 -0.546875q-1.8125 -0.46875 -2.515625 -0.796875q-0.6875 -0.328125 -1.046875 -0.90625q-0.359375 -0.59375 -0.359375 -1.3125q0 -0.640625 0.296875 -1.1875q0.296875 -0.5625 0.8125 -0.921875q0.375 -0.28125 1.03125 -0.46875q0.671875 -0.203125 1.421875 -0.203125q1.140625 0 2.0 0.328125q0.859375 0.328125 1.265625 0.890625q0.421875 0.5625 0.578125 1.5l-1.609375 0.21875q-0.109375 -0.75 -0.640625 -1.171875q-0.515625 -0.421875 -1.46875 -0.421875q-1.140625 0 -1.625 0.375q-0.46875 0.375 -0.46875 0.875q0 0.3125 0.1875 0.578125q0.203125 0.265625 0.640625 0.4375q0.234375 0.09375 1.4375 0.421875q1.75 0.453125 2.4375 0.75q0.6875 0.296875 1.078125 0.859375q0.390625 0.5625 0.390625 1.40625q0 0.828125 -0.484375 1.546875q-0.46875 0.71875 -1.375 1.125q-0.90625 0.390625 -2.046875 0.390625q-1.875 0 -2.875 -0.78125q-0.984375 -0.78125 -1.25 -2.328125z" fill-rule="nonzero"/><path fill="#000000" fill-opacity="0.0" d="m438.72964 263.60367l59.055145 1.0393677" fill-rule="evenodd"/><path stroke="#000000" stroke-width="2.0" stroke-linejoin="round" stroke-linecap="butt" d="m438.72964 263.60367l47.056976 0.82821655" fill-rule="evenodd"/><path fill="#000000" stroke="#000000" stroke-width="2.0" stroke-linecap="butt" d="m485.72852 267.73483l9.132904 -3.1432495l-9.016663 -3.4626465z" fill-rule="evenodd"/><path fill="#000000" fill-opacity="0.0" d="m438.72964 235.62993l59.055145 1.0393677" fill-rule="evenodd"/><path stroke="#000000" stroke-width="2.0" stroke-linejoin="round" stroke-linecap="butt" d="m438.72964 235.62993l47.056976 0.8282013" fill-rule="evenodd"/><path fill="#000000" stroke="#000000" stroke-width="2.0" stroke-linecap="butt" d="m485.72852 239.76108l9.132904 -3.1432343l-9.016663 -3.462677z" fill-rule="evenodd"/><path fill="#000000" fill-opacity="0.0" d="m438.72964 249.61548l59.055145 1.0393829" fill-rule="evenodd"/><path stroke="#000000" stroke-width="2.0" stroke-linejoin="round" stroke-linecap="butt" d="m438.72964 249.61548l47.056976 0.82821655" fill-rule="evenodd"/><path fill="#000000" stroke="#000000" stroke-width="2.0" stroke-linecap="butt" d="m485.72852 253.74664l9.132904 -3.1432343l-9.016663 -3.462677z" fill-rule="evenodd"/><path fill="#000000" fill-opacity="0.0" d="m438.72964 92.20473l59.055145 1.0393677" fill-rule="evenodd"/><path stroke="#000000" stroke-width="2.0" stroke-linejoin="round" stroke-linecap="butt" d="m438.72964 92.20473l47.056976 0.8282013" fill-rule="evenodd"/><path fill="#000000" stroke="#000000" stroke-width="2.0" stroke-linecap="butt" d="m485.72852 96.335884l9.132904 -3.143242l-9.016663 -3.4626694z" fill-rule="evenodd"/><path fill="#000000" fill-opacity="0.0" d="m438.72964 64.23097l59.055145 1.0393677" fill-rule="evenodd"/><path stroke="#000000" stroke-width="2.0" stroke-linejoin="round" stroke-linecap="butt" d="m438.72964 64.23097l47.056976 0.8282013" fill-rule="evenodd"/><path fill="#000000" stroke="#000000" stroke-width="2.0" stroke-linecap="butt" d="m485.72852 68.36213l9.132904 -3.143242l-9.016663 -3.4626656z" fill-rule="evenodd"/><path fill="#000000" fill-opacity="0.0" d="m438.72964 78.21654l59.055145 1.0393677" fill-rule="evenodd"/><path stroke="#000000" stroke-width="2.0" stroke-linejoin="round" stroke-linecap="butt" d="m438.72964 78.21654l47.056976 0.8282013" fill-rule="evenodd"/><path fill="#000000" stroke="#000000" stroke-width="2.0" stroke-linecap="butt" d="m485.72852 82.347694l9.132904 -3.143242l-9.016663 -3.4626694z" fill-rule="evenodd"/><path fill="#000000" fill-opacity="0.0" d="m497.7848 45.070866l1.0393677 241.38583" fill-rule="evenodd"/><path stroke="#000000" stroke-width="2.0" stroke-linejoin="round" stroke-linecap="butt" d="m497.7848 45.070866l1.0393677 241.38583" fill-rule="evenodd"/><path fill="#000000" fill-opacity="0.0" d="m534.50397 45.070866l0.56689453 128.97638" fill-rule="evenodd"/><path stroke="#000000" stroke-width="2.0" stroke-linejoin="round" stroke-linecap="butt" d="m534.50397 45.070866l0.56689453 128.97638" fill-rule="evenodd"/><path fill="#000000" fill-opacity="0.0" d="m561.7743 45.070866l0.56689453 62.677166" fill-rule="evenodd"/><path stroke="#000000" stroke-width="2.0" stroke-linejoin="round" stroke-linecap="butt" d="m561.7743 45.070866l0.56689453 62.677166" fill-rule="evenodd"/><path fill="#000000" fill-opacity="0.0" d="m593.8793 47.01837l0.5983887 39.622047" fill-rule="evenodd"/><path stroke="#000000" stroke-width="2.0" stroke-linejoin="round" stroke-linecap="butt" d="m593.8793 47.01837l0.5983887 39.622047" fill-rule="evenodd"/><path fill="#000000" fill-opacity="0.0" d="m0 37.29659l0 231.02364l49.19685 0l0 -231.02364z" fill-rule="evenodd"/><path fill="#000000" d="m25.341873 249.92958l1.578125 0l0 8.82814q-0.59375 0.015625 -1.140625 -0.1875q-0.90625 -0.34375 -1.78125 -1.078125q-0.875 -0.75 -2.015625 -2.1562653q-1.78125 -2.171875 -2.828125 -2.9375q-1.046875 -0.765625 -1.96875 -0.765625q-0.984375 0 -1.640625 0.703125q-0.671875 0.6875 -0.671875 1.8125q0 1.1875 0.71875 1.9062653q0.703125 0.703125 1.953125 0.703125l-0.171875 1.6875q-1.890625 -0.171875 -2.875 -1.296875q-0.984375 -1.140625 -0.984375 -3.0312653q0 -1.921875 1.0625 -3.046875q1.0625 -1.125 2.640625 -1.125q0.796875 0 1.578125 0.328125q0.78125 0.328125 1.640625 1.09375q0.84375 0.75 2.34375 2.53125q1.234375 1.46875 1.6875 1.890625q0.4375 0.42189026 0.875 0.68751526l0 -6.5468903zm-1.921875 -1.7663422l-0.140625 -1.71875q1.25 -0.1875 1.890625 -0.875q0.625 -0.703125 0.625 -1.6875q0 -1.1875 -0.890625 -2.0q-0.890625 -0.828125 -2.359375 -0.828125q-1.40625 0 -2.21875 0.796875q-0.8125 0.78125 -0.8125 2.0625q0 0.78125 0.359375 1.421875q0.359375 0.640625 0.9375 1.0l-0.203125 1.546875l-6.859375 -1.296875l0 -6.640625l1.5625 0l0 5.328125l3.59375 0.71875q-0.84375 -1.203125 -0.84375 -2.515625q0 -1.75 1.21875 -2.953125q1.203125 -1.203125 3.109375 -1.203125q1.8125 0 3.140625 1.046875q1.625 1.296875 1.625 3.515625q0 1.8125 -1.015625 2.96875q-1.03125 1.15625 -2.71875 1.3125zm-6.578125 -18.875717l0.125 1.625q-0.96875 0.21875 -1.40625 0.625q-0.703125 0.65625 -0.703125 1.640625q0 0.78125 0.4375 1.375q0.5625 0.765625 1.65625 1.21875q1.078125 0.453125 3.078125 0.46875q-0.890625 -0.59375 -1.328125 -1.453125q-0.4375 -0.859375 -0.4375 -1.796875q0 -1.640625 1.203125 -2.78125q1.203125 -1.15625 3.109375 -1.15625q1.265625 0 2.34375 0.546875q1.078125 0.53125 1.65625 1.484375q0.578125 0.9375 0.578125 2.140625q0 2.0625 -1.5 3.359375q-1.515625 1.28125 -4.984375 1.28125q-3.875 0 -5.625 -1.421875q-1.53125 -1.25 -1.53125 -3.375q0 -1.5625 0.890625 -2.5625q0.875 -1.015625 2.4375 -1.21875zm5.75 6.6875q0.84375 0 1.625 -0.359375q0.765625 -0.359375 1.171875 -1.0q0.40625 -0.640625 0.40625 -1.359375q0 -1.03125 -0.828125 -1.78125q-0.84375 -0.75 -2.28125 -0.75q-1.390625 0 -2.1875 0.734375q-0.796875 0.734375 -0.796875 1.859375q0 1.109375 0.796875 1.890625q0.796875 0.765625 2.09375 0.765625zm4.328125 -14.465271l-13.359375 0l0 -1.765625l5.484375 0l0 -6.9375l-5.484375 0l0 -1.765625l13.359375 0l0 1.765625l-6.296875 0l0 6.9375l6.296875 0l0 1.765625zm-11.46875 -13.207321l-1.890625 0l0 -1.640625l1.890625 0l0 1.640625zm11.46875 0l-9.671875 0l0 -1.640625l9.671875 0l0 1.640625zm-2.890625 -3.4885712l-0.25 -1.625q0.96875 -0.125 1.5 -0.75q0.515625 -0.625 0.515625 -1.75q0 -1.125 -0.453125 -1.671875q-0.46875 -0.546875 -1.09375 -0.546875q-0.546875 0 -0.875 0.484375q-0.21875 0.328125 -0.546875 1.671875q-0.46875 1.8125 -0.796875 2.515625q-0.328125 0.6875 -0.90625 1.046875q-0.59375 0.359375 -1.3125 0.359375q-0.640625 0 -1.1875 -0.296875q-0.5625 -0.296875 -0.921875 -0.8125q-0.28125 -0.375 -0.46875 -1.03125q-0.203125 -0.671875 -0.203125 -1.421875q0 -1.140625 0.328125 -2.0q0.328125 -0.859375 0.890625 -1.265625q0.5625 -0.421875 1.5 -0.578125l0.21875 1.609375q-0.75 0.109375 -1.171875 0.640625q-0.421875 0.515625 -0.421875 1.46875q0 1.140625 0.375 1.625q0.375 0.46875 0.875 0.46875q0.3125 0 0.578125 -0.1875q0.265625 -0.203125 0.4375 -0.640625q0.09375 -0.234375 0.421875 -1.4375q0.453125 -1.75 0.75 -2.4375q0.296875 -0.6875 0.859375 -1.078125q0.5625 -0.390625 1.40625 -0.390625q0.828125 0 1.546875 0.484375q0.71875 0.46875 1.125 1.375q0.390625 0.90625 0.390625 2.046875q0 1.875 -0.78125 2.875q-0.78125 0.984375 -2.328125 1.25zm1.421875 -13.5625l1.453125 -0.234375q0.140625 0.6875 0.140625 1.234375q0 0.890625 -0.28125 1.390625q-0.28125 0.484375 -0.734375 0.6875q-0.46875 0.203125 -1.9375 0.203125l-5.578125 0l0 1.203125l-1.265625 0l0 -1.203125l-2.390625 0l-0.984375 -1.625l3.375 0l0 -1.65625l1.265625 0l0 1.65625l5.671875 0q0.6875 0 0.890625 -0.078125q0.203125 -0.09375 0.328125 -0.28125q0.109375 -0.203125 0.109375 -0.578125q0 -0.265625 -0.0625 -0.71875zm-3.375 -0.99580383q-2.6875 0 -3.96875 -1.484375q-1.078125 -1.25 -1.078125 -3.046875q0 -2.0 1.3125 -3.265625q1.296875 -1.265625 3.609375 -1.265625q1.859375 0 2.9375 0.5625q1.0625 0.5625 1.65625 1.640625q0.59375 1.0625 0.59375 2.328125q0 2.03125 -1.296875 3.28125q-1.3125 1.25 -3.765625 1.25zm0 -1.6875q1.859375 0 2.796875 -0.796875q0.921875 -0.8125 0.921875 -2.046875q0 -1.21875 -0.921875 -2.03125q-0.9375 -0.8125 -2.84375 -0.8125q-1.796875 0 -2.71875 0.8125q-0.921875 0.8125 -0.921875 2.03125q0 1.234375 0.921875 2.046875q0.90625 0.796875 2.765625 0.796875zm5.640625 -8.985092l0.234375 -1.59375q0.75 -0.109375 1.078125 -0.5625q0.453125 -0.609375 0.453125 -1.671875q0 -1.140625 -0.453125 -1.75q-0.453125 -0.625 -1.265625 -0.84375q-0.5 -0.125 -2.109375 -0.109375q1.265625 1.0625 1.265625 2.671875q0 2.0 -1.4375 3.09375q-1.4375 1.09375 -3.453125 1.09375q-1.390625 0 -2.5625 -0.5q-1.171875 -0.515625 -1.796875 -1.453125q-0.640625 -0.953125 -0.640625 -2.25q0 -1.703125 1.375 -2.8125l-1.15625 0l0 -1.515625l8.359375 0q2.265625 0 3.203125 0.46875q0.9375 0.453125 1.484375 1.453125q0.546875 0.984375 0.546875 2.453125q0 1.71875 -0.78125 2.796875q-0.765625 1.0625 -2.34375 1.03125zm-5.8125 -1.359375q1.90625 0 2.78125 -0.75q0.875 -0.765625 0.875 -1.90625q0 -1.125 -0.859375 -1.890625q-0.875 -0.765625 -2.734375 -0.765625q-1.78125 0 -2.671875 0.796875q-0.90625 0.78125 -0.90625 1.890625q0 1.09375 0.890625 1.859375q0.875 0.765625 2.625 0.765625zm5.015625 -9.313217l-9.671875 0l0 -1.46875l1.46875 0q-1.03125 -0.5625 -1.359375 -1.03125q-0.328125 -0.484375 -0.328125 -1.0625q0 -0.828125 0.53125 -1.6875l1.515625 0.5625q-0.359375 0.609375 -0.359375 1.203125q0 0.546875 0.328125 0.96875q0.328125 0.421875 0.890625 0.609375q0.875 0.28125 1.921875 0.28125l5.0625 0l0 1.625zm-1.1875 -12.540802q0.765625 0.921875 1.09375 1.765625q0.3125 0.828125 0.3125 1.796875q0 1.59375 -0.78125 2.453125q-0.78125 0.859375 -1.984375 0.859375q-0.71875 0 -1.296875 -0.328125q-0.59375 -0.328125 -0.9375 -0.84375q-0.359375 -0.53125 -0.546875 -1.1875q-0.125 -0.46875 -0.25 -1.453125q-0.234375 -1.984375 -0.5625 -2.921875q-0.34375 -0.015625 -0.421875 -0.015625q-1.0 0 -1.421875 0.46875q-0.546875 0.625 -0.546875 1.875q0 1.15625 0.40625 1.703125q0.40625 0.546875 1.421875 0.8125l-0.21875 1.609375q-1.015625 -0.21875 -1.640625 -0.71875q-0.640625 -0.5 -0.984375 -1.453125q-0.34375 -0.953125 -0.34375 -2.1875q0 -1.25 0.296875 -2.015625q0.28125 -0.78125 0.734375 -1.140625q0.4375 -0.375 1.109375 -0.515625q0.421875 -0.078125 1.515625 -0.078125l2.1875 0q2.28125 0 2.890625 -0.109375q0.59375 -0.109375 1.15625 -0.40625l0 1.703125q-0.515625 0.265625 -1.1875 0.328125zm-3.671875 0.140625q0.375 0.890625 0.625 2.671875q0.140625 1.015625 0.328125 1.4375q0.1875 0.421875 0.53125 0.65625q0.34375 0.21875 0.78125 0.21875q0.65625 0 1.09375 -0.5q0.4375 -0.5 0.4375 -1.453125q0 -0.9375 -0.40625 -1.671875q-0.421875 -0.75 -1.140625 -1.09375q-0.5625 -0.265625 -1.640625 -0.265625l-0.609375 0zm4.859375 -4.203842l-9.671875 0l0 -1.46875l1.359375 0q-0.71875 -0.453125 -1.140625 -1.203125q-0.4375 -0.765625 -0.4375 -1.71875q0 -1.078125 0.453125 -1.765625q0.4375 -0.6875 1.234375 -0.96875q-1.6875 -1.15625 -1.6875 -2.984375q0 -1.453125 0.796875 -2.21875q0.796875 -0.78125 2.453125 -0.78125l6.640625 0l0 1.640625l-6.09375 0q-0.984375 0 -1.40625 0.15625q-0.4375 0.15625 -0.703125 0.578125q-0.265625 0.421875 -0.265625 0.984375q0 1.015625 0.6875 1.6875q0.671875 0.671875 2.15625 0.671875l5.625 0l0 1.640625l-6.28125 0q-1.09375 0 -1.640625 0.40625q-0.546875 0.40625 -0.546875 1.3125q0 0.6875 0.359375 1.28125q0.359375 0.59375 1.0625 0.859375q0.703125 0.25 2.03125 0.25l5.015625 0l0 1.640625zm0 -23.411606l-9.671875 3.6875l0 -1.734375l5.796875 -2.078125q0.9375 -0.328125 1.9375 -0.625q-0.765625 -0.20311737 -1.828125 -0.6093674l-5.90625 -2.140625l0 -1.6875l9.671875 3.65625l0 1.5312424zm-1.1875 -12.953117q0.765625 0.921875 1.09375 1.765625q0.3125 0.828125 0.3125 1.796875q0 1.59375 -0.78125 2.453125q-0.78125 0.859375 -1.984375 0.859375q-0.71875 0 -1.296875 -0.328125q-0.59375 -0.328125 -0.9375 -0.84375q-0.359375 -0.53125 -0.546875 -1.1875q-0.125 -0.46875 -0.25 -1.453125q-0.234375 -1.984375 -0.5625 -2.921875q-0.34375 -0.015625 -0.421875 -0.015625q-1.0 0 -1.421875 0.46875q-0.546875 0.625 -0.546875 1.875q0 1.15625 0.40625 1.703125q0.40625 0.546875 1.421875 0.8125l-0.21875 1.609375q-1.015625 -0.21875 -1.640625 -0.71875q-0.640625 -0.5 -0.984375 -1.453125q-0.34375 -0.953125 -0.34375 -2.1875q0 -1.25 0.296875 -2.015625q0.28125 -0.78125 0.734375 -1.140625q0.4375 -0.375 1.109375 -0.515625q0.421875 -0.078125 1.515625 -0.078125l2.1875 0q2.28125 0 2.890625 -0.109375q0.59375 -0.109375 1.15625 -0.40625l0 1.703125q-0.515625 0.265625 -1.1875 0.328125zm-3.671875 0.140625q0.375 0.890625 0.625 2.671875q0.140625 1.015625 0.328125 1.4375q0.1875 0.421875 0.53125 0.65625q0.34375 0.21875 0.78125 0.21875q0.65625 0 1.09375 -0.5q0.4375 -0.5 0.4375 -1.453125q0 -0.9375 -0.40625 -1.671875q-0.421875 -0.75 -1.140625 -1.09375q-0.5625 -0.265625 -1.640625 -0.265625l-0.609375 0zm4.859375 -4.156967l-13.359375 0l0 -1.640625l13.359375 0l0 1.640625zm0 -10.519821l-1.421875 0q1.640625 1.125 1.640625 3.0625q0 0.859375 -0.328125 1.609375q-0.328125 0.734375 -0.828125 1.09375q-0.5 0.359375 -1.21875 0.5q-0.46875 0.109375 -1.53125 0.109375l-5.984375 0l0 -1.640625l5.359375 0q1.28125 0 1.734375 -0.109375q0.640625 -0.15625 1.015625 -0.65625q0.375 -0.5 0.375 -1.234375q0 -0.734375 -0.375 -1.375q-0.390625 -0.65625 -1.03125 -0.921875q-0.65625 -0.265625 -1.890625 -0.265625l-5.1875 0l0 -1.640625l9.671875 0l0 1.46875zm-3.109375 -10.672592l0.203125 -1.6875q1.484375 0.40625 2.3125 1.484375q0.8125 1.078125 0.8125 2.765625q0 2.125 -1.296875 3.375q-1.3125 1.234375 -3.671875 1.234375q-2.453125 0 -3.796875 -1.25q-1.34375 -1.265625 -1.34375 -3.265625q0 -1.9375 1.328125 -3.15625q1.3125 -1.234375 3.703125 -1.234375q0.15625 0 0.4375 0l0 7.21875q1.59375 -0.09375 2.453125 -0.90625q0.84375 -0.8125 0.84375 -2.015625q0 -0.90625 -0.46875 -1.546875q-0.484375 -0.640625 -1.515625 -1.015625zm-2.65625 5.390625l0 -5.40625q-1.21875 0.109375 -1.828125 0.625q-0.953125 0.78125 -0.953125 2.03125q0 1.125 0.765625 1.90625q0.75 0.765625 2.015625 0.84375zm2.875 -8.485092l-0.25 -1.625q0.96875 -0.125 1.5 -0.75q0.515625 -0.625 0.515625 -1.75q0 -1.125 -0.453125 -1.671875q-0.46875 -0.546875 -1.09375 -0.546875q-0.546875 0 -0.875 0.484375q-0.21875 0.328125 -0.546875 1.671875q-0.46875 1.8125 -0.796875 2.515625q-0.328125 0.6875 -0.90625 1.046875q-0.59375 0.359375 -1.3125 0.359375q-0.640625 0 -1.1875 -0.296875q-0.5625 -0.296875 -0.921875 -0.8125q-0.28125 -0.375 -0.46875 -1.03125q-0.203125 -0.671875 -0.203125 -1.421875q0 -1.140625 0.328125 -2.0q0.328125 -0.859375 0.890625 -1.265625q0.5625 -0.421875 1.5 -0.578125l0.21875 1.609375q-0.75 0.109375 -1.171875 0.640625q-0.421875 0.515625 -0.421875 1.46875q0 1.140625 0.375 1.625q0.375 0.46875 0.875 0.46875q0.3125 0 0.578125 -0.1875q0.265625 -0.203125 0.4375 -0.640625q0.09375 -0.234375 0.421875 -1.4375q0.453125 -1.75 0.75 -2.4375q0.296875 -0.6875 0.859375 -1.078125q0.5625 -0.390625 1.40625 -0.390625q0.828125 0 1.546875 0.484375q0.71875 0.46875 1.125 1.375q0.390625 0.90625 0.390625 2.046875q0 1.875 -0.78125 2.875q-0.78125 0.984375 -2.328125 1.25z" fill-rule="nonzero"/><path fill="#000000" fill-opacity="0.0" d="m105.931755 50.25197l0 231.02364l49.19686 0l0 -231.02364z" fill-rule="evenodd"/><path fill="#000000" d="m132.85176 270.85373l-13.359383 0l0 -1.8125l10.484383 -7.015625l-10.484383 0l0 -1.6875l13.359383 0l0 1.8125l-10.500008 7.015625l10.500008 0l0 1.6875zm-4.84375 -12.676086q-2.6875076 0 -3.9687576 -1.484375q-1.078125 -1.25 -1.078125 -3.046875q0 -2.0 1.3125 -3.265625q1.296875 -1.265625 3.609375 -1.265625q1.8593826 0 2.9375076 0.5625q1.0625 0.5625 1.65625 1.640625q0.59375 1.0625 0.59375 2.328125q0 2.03125 -1.296875 3.28125q-1.3125 1.25 -3.765625 1.25zm0 -1.6875q1.859375 0 2.796875 -0.796875q0.921875 -0.8125 0.921875 -2.046875q0 -1.21875 -0.921875 -2.03125q-0.9375 -0.8125 -2.8437576 -0.8125q-1.796875 0 -2.71875 0.8125q-0.921875 0.8125 -0.921875 2.03125q0 1.234375 0.921875 2.046875q0.90625 0.796875 2.7656326 0.796875zm4.84375 -9.297592l-9.671883 0l0 -1.46875l1.375 0q-1.59375 -1.0625 -1.59375 -3.078125q0 -0.875 0.3125 -1.609375q0.3125 -0.734375 0.828125 -1.09375q0.5 -0.375 1.203125 -0.515625q0.453125 -0.09375 1.59375 -0.09375l5.9531326 0l0 1.640625l-5.8906326 0q-1.0 0 -1.484375 0.203125q-0.5 0.1875 -0.796875 0.671875q-0.296875 0.484375 -0.296875 1.140625q0 1.046875 0.671875 1.8125q0.65625 0.75 2.515625 0.75l5.2812576 0l0 1.640625zm0 -10.328842l-13.359383 0l0 -1.640625l13.359383 0l0 1.640625zm-11.468758 -4.191696l-1.890625 0l0 -1.640625l1.890625 0l0 1.640625zm11.468758 0l-9.671883 0l0 -1.640625l9.671883 0l0 1.640625zm0 -4.144821l-9.671883 0l0 -1.46875l1.375 0q-1.59375 -1.0625 -1.59375 -3.078125q0 -0.875 0.3125 -1.609375q0.3125 -0.734375 0.828125 -1.09375q0.5 -0.375 1.203125 -0.515625q0.453125 -0.09375 1.59375 -0.09375l5.9531326 0l0 1.640625l-5.8906326 0q-1.0 0 -1.484375 0.203125q-0.5 0.1875 -0.796875 0.671875q-0.296875 0.484375 -0.296875 1.140625q0 1.046875 0.671875 1.8125q0.65625 0.75 2.515625 0.75l5.2812576 0l0 1.640625zm-3.109375 -17.000717l0.203125 -1.6875q1.484375 0.40625 2.3125 1.484375q0.8125 1.078125 0.8125 2.765625q0 2.125 -1.296875 3.375q-1.3125 1.234375 -3.671875 1.234375q-2.4531326 0 -3.7968826 -1.25q-1.34375 -1.265625 -1.34375 -3.265625q0 -1.9375 1.328125 -3.15625q1.3125 -1.234375 3.703125 -1.234375q0.15625763 0 0.43750763 0l0 7.21875q1.59375 -0.09375 2.453125 -0.90625q0.84375 -0.8125 0.84375 -2.015625q0 -0.90625 -0.46875 -1.546875q-0.484375 -0.640625 -1.515625 -1.015625zm-2.6562576 5.390625l0 -5.40625q-1.21875 0.109375 -1.828125 0.625q-0.953125 0.78125 -0.953125 2.03125q0 1.125 0.765625 1.90625q0.75 0.765625 2.015625 0.84375zm4.5781326 -15.453842q0.765625 0.921875 1.09375 1.765625q0.3125 0.828125 0.3125 1.796875q0 1.59375 -0.78125 2.453125q-0.78125 0.859375 -1.984375 0.859375q-0.71875 0 -1.296875 -0.328125q-0.59375 -0.328125 -0.9375 -0.84375q-0.35938263 -0.53125 -0.5468826 -1.1875q-0.125 -0.46875 -0.25 -1.453125q-0.234375 -1.984375 -0.5625 -2.921875q-0.34375 -0.015625 -0.421875 -0.015625q-1.0 0 -1.421875 0.46875q-0.546875 0.625 -0.546875 1.875q0 1.15625 0.40625 1.703125q0.40625 0.546875 1.421875 0.8125l-0.21875 1.609375q-1.015625 -0.21875 -1.640625 -0.71875q-0.640625 -0.5 -0.984375 -1.453125q-0.34375 -0.953125 -0.34375 -2.1875q0 -1.25 0.296875 -2.015625q0.28125 -0.78125 0.734375 -1.140625q0.4375 -0.375 1.109375 -0.515625q0.421875 -0.078125 1.515625 -0.078125l2.1875076 0q2.28125 0 2.890625 -0.109375q0.59375 -0.109375 1.15625 -0.40625l0 1.703125q-0.515625 0.265625 -1.1875 0.328125zm-3.6718826 0.140625q0.37500763 0.890625 0.6250076 2.671875q0.140625 1.015625 0.328125 1.4375q0.1875 0.421875 0.53125 0.65625q0.34375 0.21875 0.78125 0.21875q0.65625 0 1.09375 -0.5q0.4375 -0.5 0.4375 -1.453125q0 -0.9375 -0.40625 -1.671875q-0.421875 -0.75 -1.140625 -1.09375q-0.5625 -0.265625 -1.640625 -0.265625l-0.6093826 0zm4.8593826 -4.188217l-9.671883 0l0 -1.46875l1.46875 0q-1.03125 -0.5625 -1.359375 -1.03125q-0.328125 -0.484375 -0.328125 -1.0625q0 -0.828125 0.53125 -1.6875l1.515625 0.5625q-0.359375 0.609375 -0.359375 1.203125q0 0.546875 0.328125 0.96875q0.328125 0.421875 0.890625 0.609375q0.875 0.28125 1.921875 0.28125l5.0625076 0l0 1.625zm3.703125 -17.567856l-4.734375 0q0.546875 0.375 0.90625 1.0625q0.34375 0.6875 0.34375 1.46875q0 1.71875 -1.375 2.96875q-1.375 1.234375 -3.7656326 1.234375q-1.46875 0 -2.625 -0.5q-1.15625 -0.515625 -1.75 -1.46875q-0.59375 -0.96875 -0.59375 -2.109375q0 -1.796875 1.515625 -2.828125l-1.296875 0l0 -1.46875l13.375008 0l0 1.640625zm-8.562508 5.046875q1.8593826 0 2.7968826 -0.78125q0.9375 -0.78125 0.9375 -1.875q0 -1.046875 -0.890625 -1.796875q-0.890625 -0.765625 -2.703125 -0.765625q-1.9375076 0 -2.9062576 0.796875q-0.96875 0.796875 -0.96875 1.875q0 1.0625 0.90625 1.8125q0.90625 0.734375 2.828125 0.734375zm4.8593826 -15.594467l-1.421875 0q1.640625 1.125 1.640625 3.0625q0 0.859375 -0.328125 1.609375q-0.328125 0.734375 -0.828125 1.09375q-0.5 0.359375 -1.21875 0.5q-0.46875 0.109375 -1.53125 0.109375l-5.9843826 0l0 -1.640625l5.3593826 0q1.28125 0 1.734375 -0.109375q0.640625 -0.15625 1.015625 -0.65625q0.375 -0.5 0.375 -1.234375q0 -0.734375 -0.375 -1.375q-0.390625 -0.65625 -1.03125 -0.921875q-0.65625 -0.265625 -1.890625 -0.265625l-5.1875076 0l0 -1.640625l9.671883 0l0 1.46875zm-1.1875 -10.360092q0.765625 0.921875 1.09375 1.765625q0.3125 0.828125 0.3125 1.796875q0 1.59375 -0.78125 2.453125q-0.78125 0.859375 -1.984375 0.859375q-0.71875 0 -1.296875 -0.328125q-0.59375 -0.328125 -0.9375 -0.84375q-0.35938263 -0.53125 -0.5468826 -1.1875q-0.125 -0.46875 -0.25 -1.453125q-0.234375 -1.984375 -0.5625 -2.921875q-0.34375 -0.015625 -0.421875 -0.015625q-1.0 0 -1.421875 0.46875q-0.546875 0.625 -0.546875 1.875q0 1.15625 0.40625 1.703125q0.40625 0.546875 1.421875 0.8125l-0.21875 1.609375q-1.015625 -0.21875 -1.640625 -0.71875q-0.640625 -0.5 -0.984375 -1.453125q-0.34375 -0.953125 -0.34375 -2.1875q0 -1.25 0.296875 -2.015625q0.28125 -0.78125 0.734375 -1.140625q0.4375 -0.375 1.109375 -0.515625q0.421875 -0.078125 1.515625 -0.078125l2.1875076 0q2.28125 0 2.890625 -0.109375q0.59375 -0.109375 1.15625 -0.40625l0 1.703125q-0.515625 0.265625 -1.1875 0.328125zm-3.6718826 0.140625q0.37500763 0.890625 0.6250076 2.671875q0.140625 1.015625 0.328125 1.4375q0.1875 0.421875 0.53125 0.65625q0.34375 0.21875 0.78125 0.21875q0.65625 0 1.09375 -0.5q0.4375 -0.5 0.4375 -1.453125q0 -0.9375 -0.40625 -1.671875q-0.421875 -0.75 -1.140625 -1.09375q-0.5625 -0.265625 -1.640625 -0.265625l-0.6093826 0zm4.8593826 -4.203842l-9.671883 0l0 -1.46875l1.375 0q-1.59375 -1.0625 -1.59375 -3.078125q0 -0.875 0.3125 -1.609375q0.3125 -0.734375 0.828125 -1.09375q0.5 -0.375 1.203125 -0.515625q0.453125 -0.09375 1.59375 -0.09375l5.9531326 0l0 1.640625l-5.8906326 0q-1.0 0 -1.484375 0.203125q-0.5 0.1875 -0.796875 0.671875q-0.296875 0.484375 -0.296875 1.140625q0 1.046875 0.671875 1.8125q0.65625 0.75 2.515625 0.75l5.2812576 0l0 1.640625zm-1.46875 -13.953842l1.453125 -0.234375q0.140625 0.6875 0.140625 1.234375q0 0.890625 -0.28125 1.390625q-0.28125 0.484375 -0.734375 0.6875q-0.46875 0.203125 -1.9375 0.203125l-5.5781326 0l0 1.203125l-1.265625 0l0 -1.203125l-2.390625 0l-0.984375 -1.625l3.375 0l0 -1.65625l1.265625 0l0 1.65625l5.6718826 0q0.6875 0 0.890625 -0.078125q0.203125 -0.09375 0.328125 -0.28125q0.109375 -0.203125 0.109375 -0.578125q0 -0.265625 -0.0625 -0.71875zm-10.000008 -1.6051788l-1.890625 0l0 -1.640625l1.890625 0l0 1.640625zm11.468758 0l-9.671883 0l0 -1.640625l9.671883 0l0 1.640625zm0 -3.2698212l-1.328125 0l-7.0781326 -6.15625q0.0625 1.046875 0.0625 1.84375l0 3.9375l-1.328125 0l0 -7.90625l1.078125 0l6.1406326 5.25l1.125 1.0q-0.078125 -1.09375 -0.078125 -2.0625l0 -4.46875l1.40625 0l0 8.5625zm-1.1875 -16.515625q0.765625 0.921875 1.09375 1.765625q0.3125 0.828125 0.3125 1.796875q0 1.59375 -0.78125 2.453125q-0.78125 0.859375 -1.984375 0.859375q-0.71875 0 -1.296875 -0.328125q-0.59375 -0.328125 -0.9375 -0.84375q-0.35938263 -0.53125 -0.5468826 -1.1875q-0.125 -0.46875 -0.25 -1.453125q-0.234375 -1.984375 -0.5625 -2.921875q-0.34375 -0.015625 -0.421875 -0.015625q-1.0 0 -1.421875 0.46875q-0.546875 0.625 -0.546875 1.875q0 1.15625 0.40625 1.703125q0.40625 0.546875 1.421875 0.8125l-0.21875 1.609375q-1.015625 -0.21875 -1.640625 -0.71875q-0.640625 -0.5 -0.984375 -1.453125q-0.34375 -0.953125 -0.34375 -2.1875q0 -1.25 0.296875 -2.015625q0.28125 -0.78125 0.734375 -1.140625q0.4375 -0.375 1.109375 -0.515625q0.421875 -0.078125 1.515625 -0.078125l2.1875076 0q2.28125 0 2.890625 -0.109375q0.59375 -0.109375 1.15625 -0.40625l0 1.703125q-0.515625 0.265625 -1.1875 0.328125zm-3.6718826 0.140625q0.37500763 0.890625 0.6250076 2.671875q0.140625 1.015625 0.328125 1.4375q0.1875 0.421875 0.53125 0.65625q0.34375 0.21875 0.78125 0.21875q0.65625 0 1.09375 -0.5q0.4375 -0.5 0.4375 -1.453125q0 -0.9375 -0.40625 -1.671875q-0.421875 -0.75 -1.140625 -1.09375q-0.5625 -0.265625 -1.640625 -0.265625l-0.6093826 0zm3.3906326 -7.781967l1.453125 -0.234375q0.140625 0.6875 0.140625 1.234375q0 0.890625 -0.28125 1.390625q-0.28125 0.484375 -0.734375 0.6875q-0.46875 0.203125 -1.9375 0.203125l-5.5781326 0l0 1.203125l-1.265625 0l0 -1.203125l-2.390625 0l-0.984375 -1.625l3.375 0l0 -1.65625l1.265625 0l0 1.65625l5.6718826 0q0.6875 0 0.890625 -0.078125q0.203125 -0.09375 0.328125 -0.28125q0.109375 -0.203125 0.109375 -0.578125q0 -0.265625 -0.0625 -0.71875zm-10.000008 -1.6051788l-1.890625 0l0 -1.640625l1.890625 0l0 1.640625zm11.468758 0l-9.671883 0l0 -1.640625l9.671883 0l0 1.640625zm-4.84375 -3.5354462q-2.6875076 0 -3.9687576 -1.484375q-1.078125 -1.25 -1.078125 -3.046875q0 -2.0 1.3125 -3.265625q1.296875 -1.265625 3.609375 -1.265625q1.8593826 0 2.9375076 0.5625q1.0625 0.5625 1.65625 1.640625q0.59375 1.0625 0.59375 2.328125q0 2.03125 -1.296875 3.28125q-1.3125 1.25 -3.765625 1.25zm0 -1.6875q1.859375 0 2.796875 -0.796875q0.921875 -0.8125 0.921875 -2.046875q0 -1.21875 -0.921875 -2.03125q-0.9375 -0.8125 -2.8437576 -0.8125q-1.796875 0 -2.71875 0.8125q-0.921875 0.8125 -0.921875 2.03125q0 1.234375 0.921875 2.046875q0.90625 0.796875 2.7656326 0.796875zm4.84375 -9.297592l-9.671883 0l0 -1.46875l1.375 0q-1.59375 -1.0625 -1.59375 -3.078125q0 -0.875 0.3125 -1.609375q0.3125 -0.734375 0.828125 -1.09375q0.5 -0.375 1.203125 -0.515625q0.453125 -0.09375 1.59375 -0.09375l5.9531326 0l0 1.640625l-5.8906326 0q-1.0 0 -1.484375 0.203125q-0.5 0.1875 -0.796875 0.671875q-0.296875 0.484375 -0.296875 1.140625q0 1.046875 0.671875 1.8125q0.65625 0.75 2.515625 0.75l5.2812576 0l0 1.640625z" fill-rule="nonzero"/><path fill="#000000" fill-opacity="0.0" d="m434.83466 298.3727l0 -231.02362l-49.19687 0l0 231.02362z" fill-rule="evenodd"/><path fill="#000000" d="m407.91464 77.70846l13.359375 0l0 1.78125l-11.78125 0l0 6.5625l-1.578125 0l0 -8.34375zm11.46875 10.250717l1.890625 0l0 1.640625l-1.890625 0l0 -1.640625zm-11.46875 0l9.671875 0l0 1.640625l-9.671875 0l0 -1.640625zm0 4.144821l9.671875 0l0 1.46875l-1.375 0q1.59375 1.0625 1.59375 3.078125q0 0.875 -0.3125 1.609375q-0.3125 0.734375 -0.828125 1.09375q-0.5 0.375 -1.203125 0.515625q-0.453125 0.09375 -1.59375 0.09375l-5.953125 0l0 -1.640625l5.890625 0q1.0 0 1.484375 -0.203125q0.5 -0.1875 0.796875 -0.671875q0.296875 -0.484375 0.296875 -1.140625q0 -1.046875 -0.671875 -1.8125q-0.65625 -0.75 -2.515625 -0.75l-5.28125 0l0 -1.640625zm3.109375 17.000717l-0.203125 1.6875q-1.484375 -0.40625 -2.3125 -1.484375q-0.8125 -1.078125 -0.8125 -2.765625q0 -2.125 1.296875 -3.375q1.3125 -1.234375 3.671875 -1.234375q2.453125 0 3.796875 1.25q1.34375 1.265625 1.34375 3.265625q0 1.9375 -1.328125 3.15625q-1.3125 1.234375 -3.703125 1.234375q-0.15625 0 -0.4375 0l0 -7.21875q-1.59375 0.09375 -2.453125 0.90625q-0.84375 0.8125 -0.84375 2.015625q0 0.90625 0.46875 1.546875q0.484375 0.640625 1.515625 1.015625zm2.65625 -5.390625l0 5.40625q1.21875 -0.109375 1.828125 -0.625q0.953125 -0.78125 0.953125 -2.03125q0 -1.125 -0.765625 -1.90625q-0.75 -0.765625 -2.015625 -0.84375zm-4.578125 15.453842q-0.765625 -0.921875 -1.09375 -1.765625q-0.3125 -0.828125 -0.3125 -1.796875q0 -1.59375 0.78125 -2.453125q0.78125 -0.859375 1.984375 -0.859375q0.71875 0 1.296875 0.328125q0.59375 0.328125 0.9375 0.84375q0.359375 0.53125 0.546875 1.1875q0.125 0.46875 0.25 1.453125q0.234375 1.984375 0.5625 2.921875q0.34375 0.015625 0.421875 0.015625q1.0 0 1.421875 -0.46875q0.546875 -0.625 0.546875 -1.875q0 -1.15625 -0.40625 -1.703125q-0.40625 -0.546875 -1.421875 -0.8125l0.21875 -1.609375q1.015625 0.21875 1.640625 0.71875q0.640625 0.5 0.984375 1.453125q0.34375 0.953125 0.34375 2.1875q0 1.25 -0.296875 2.015625q-0.28125 0.78125 -0.734375 1.140625q-0.4375 0.375 -1.109375 0.515625q-0.421875 0.078125 -1.515625 0.078125l-2.1875 0q-2.28125 0 -2.890625 0.109375q-0.59375 0.109375 -1.15625 0.40625l0 -1.703125q0.515625 -0.265625 1.1875 -0.328125zm3.671875 -0.140625q-0.375 -0.890625 -0.625 -2.671875q-0.140625 -1.015625 -0.328125 -1.4375q-0.1875 -0.421875 -0.53125 -0.65625q-0.34375 -0.21875 -0.78125 -0.21875q-0.65625 0 -1.09375 0.5q-0.4375 0.5 -0.4375 1.453125q0 0.9375 0.40625 1.671875q0.421875 0.75 1.140625 1.09375q0.5625 0.265625 1.640625 0.265625l0.609375 0zm-4.859375 4.188217l9.671875 0l0 1.46875l-1.46875 0q1.03125 0.5625 1.359375 1.03125q0.328125 0.484375 0.328125 1.0625q0 0.828125 -0.53125 1.6874924l-1.515625 -0.5624924q0.359375 -0.609375 0.359375 -1.203125q0 -0.546875 -0.328125 -0.96875q-0.328125 -0.421875 -0.890625 -0.609375q-0.875 -0.28125 -1.921875 -0.28125l-5.0625 0l0 -1.625zm-3.703125 17.567848l4.734375 0q-0.546875 -0.375 -0.90625 -1.0625q-0.34375 -0.6875 -0.34375 -1.46875q0 -1.71875 1.375 -2.96875q1.375 -1.234375 3.765625 -1.234375q1.46875 0 2.625 0.5q1.15625 0.515625 1.75 1.46875q0.59375 0.96875 0.59375 2.109375q0 1.796875 -1.515625 2.828125l1.296875 0l0 1.46875l-13.375 0l0 -1.640625zm8.5625 -5.046875q-1.859375 0 -2.796875 0.78125q-0.9375 0.78125 -0.9375 1.875q0 1.046875 0.890625 1.796875q0.890625 0.765625 2.703125 0.765625q1.9375 0 2.90625 -0.796875q0.96875 -0.796875 0.96875 -1.875q0 -1.0625 -0.90625 -1.8125q-0.90625 -0.734375 -2.828125 -0.734375zm-4.859375 15.594467l1.421875 0q-1.640625 -1.125 -1.640625 -3.0625q0 -0.859375 0.328125 -1.609375q0.328125 -0.734375 0.828125 -1.09375q0.5 -0.359375 1.21875 -0.5q0.46875 -0.109375 1.53125 -0.109375l5.984375 0l0 1.640625l-5.359375 0q-1.28125 0 -1.734375 0.109375q-0.640625 0.15625 -1.015625 0.65625q-0.375 0.5 -0.375 1.234375q0 0.734375 0.375 1.375q0.390625 0.65625 1.03125 0.921875q0.65625 0.265625 1.890625 0.265625l5.1875 0l0 1.640625l-9.671875 0l0 -1.46875zm1.1875 10.360092q-0.765625 -0.921875 -1.09375 -1.765625q-0.3125 -0.828125 -0.3125 -1.796875q0 -1.59375 0.78125 -2.453125q0.78125 -0.859375 1.984375 -0.859375q0.71875 0 1.296875 0.328125q0.59375 0.328125 0.9375 0.84375q0.359375 0.53125 0.546875 1.1875q0.125 0.46875 0.25 1.453125q0.234375 1.984375 0.5625 2.921875q0.34375 0.015625 0.421875 0.015625q1.0 0 1.421875 -0.46875q0.546875 -0.625 0.546875 -1.875q0 -1.15625 -0.40625 -1.703125q-0.40625 -0.546875 -1.421875 -0.8125l0.21875 -1.609375q1.015625 0.21875 1.640625 0.71875q0.640625 0.5 0.984375 1.453125q0.34375 0.953125 0.34375 2.1875q0 1.25 -0.296875 2.015625q-0.28125 0.78125 -0.734375 1.140625q-0.4375 0.375 -1.109375 0.515625q-0.421875 0.078125 -1.515625 0.078125l-2.1875 0q-2.28125 0 -2.890625 0.109375q-0.59375 0.109375 -1.15625 0.40625l0 -1.703125q0.515625 -0.265625 1.1875 -0.328125zm3.671875 -0.140625q-0.375 -0.890625 -0.625 -2.671875q-0.140625 -1.015625 -0.328125 -1.4375q-0.1875 -0.421875 -0.53125 -0.65625q-0.34375 -0.21875 -0.78125 -0.21875q-0.65625 0 -1.09375 0.5q-0.4375 0.5 -0.4375 1.453125q0 0.9375 0.40625 1.671875q0.421875 0.75 1.140625 1.09375q0.5625 0.265625 1.640625 0.265625l0.609375 0zm-4.859375 4.203842l9.671875 0l0 1.46875l-1.375 0q1.59375 1.0625 1.59375 3.078125q0 0.875 -0.3125 1.609375q-0.3125 0.734375 -0.828125 1.09375q-0.5 0.375 -1.203125 0.515625q-0.453125 0.09375 -1.59375 0.09375l-5.953125 0l0 -1.640625l5.890625 0q1.0 0 1.484375 -0.203125q0.5 -0.1875 0.796875 -0.671875q0.296875 -0.484375 0.296875 -1.140625q0 -1.046875 -0.671875 -1.8125q-0.65625 -0.75 -2.515625 -0.75l-5.28125 0l0 -1.640625zm1.46875 13.953842l-1.453125 0.234375q-0.140625 -0.6875 -0.140625 -1.234375q0 -0.890625 0.28125 -1.390625q0.28125 -0.484375 0.734375 -0.6875q0.46875 -0.203125 1.9375 -0.203125l5.578125 0l0 -1.203125l1.265625 0l0 1.203125l2.390625 0l0.984375 1.625l-3.375 0l0 1.65625l-1.265625 0l0 -1.65625l-5.671875 0q-0.6875 0 -0.890625 0.078125q-0.203125 0.09375 -0.328125 0.28125q-0.109375 0.203125 -0.109375 0.578125q0 0.265625 0.0625 0.71875zm10.0 1.6051788l1.890625 0l0 1.640625l-1.890625 0l0 -1.640625zm-11.46875 0l9.671875 0l0 1.640625l-9.671875 0l0 -1.640625zm0 3.2698212l1.328125 0l7.078125 6.15625q-0.0625 -1.046875 -0.0625 -1.84375l0 -3.9375l1.328125 0l0 7.90625l-1.078125 0l-6.140625 -5.25l-1.125 -1.0q0.078125 1.09375 0.078125 2.0625l0 4.46875l-1.40625 0l0 -8.5625zm1.1875 16.515625q-0.765625 -0.921875 -1.09375 -1.765625q-0.3125 -0.828125 -0.3125 -1.796875q0 -1.59375 0.78125 -2.453125q0.78125 -0.859375 1.984375 -0.859375q0.71875 0 1.296875 0.328125q0.59375 0.328125 0.9375 0.84375q0.359375 0.53125 0.546875 1.1875q0.125 0.46875 0.25 1.453125q0.234375 1.984375 0.5625 2.921875q0.34375 0.015625 0.421875 0.015625q1.0 0 1.421875 -0.46875q0.546875 -0.625 0.546875 -1.875q0 -1.15625 -0.40625 -1.703125q-0.40625 -0.546875 -1.421875 -0.8125l0.21875 -1.609375q1.015625 0.21875 1.640625 0.71875q0.640625 0.5 0.984375 1.453125q0.34375 0.953125 0.34375 2.1875q0 1.25 -0.296875 2.015625q-0.28125 0.78125 -0.734375 1.140625q-0.4375 0.375 -1.109375 0.515625q-0.421875 0.078125 -1.515625 0.078125l-2.1875 0q-2.28125 0 -2.890625 0.109375q-0.59375 0.109375 -1.15625 0.40625l0 -1.703125q0.515625 -0.265625 1.1875 -0.328125zm3.671875 -0.140625q-0.375 -0.890625 -0.625 -2.671875q-0.140625 -1.015625 -0.328125 -1.4375q-0.1875 -0.421875 -0.53125 -0.65625q-0.34375 -0.21875 -0.78125 -0.21875q-0.65625 0 -1.09375 0.5q-0.4375 0.5 -0.4375 1.453125q0 0.9375 0.40625 1.671875q0.421875 0.75 1.140625 1.09375q0.5625 0.265625 1.640625 0.265625l0.609375 0zm-3.390625 7.781967l-1.453125 0.234375q-0.140625 -0.6875 -0.140625 -1.234375q0 -0.890625 0.28125 -1.390625q0.28125 -0.484375 0.734375 -0.6875q0.46875 -0.203125 1.9375 -0.203125l5.578125 0l0 -1.203125l1.265625 0l0 1.203125l2.390625 0l0.984375 1.625l-3.375 0l0 1.65625l-1.265625 0l0 -1.65625l-5.671875 0q-0.6875 0 -0.890625 0.078125q-0.203125 0.09375 -0.328125 0.28125q-0.109375 0.203125 -0.109375 0.578125q0 0.265625 0.0625 0.71875zm10.0 1.6051788l1.890625 0l0 1.640625l-1.890625 0l0 -1.640625zm-11.46875 0l9.671875 0l0 1.640625l-9.671875 0l0 -1.640625zm4.84375 3.5354462q2.6875 0 3.96875 1.484375q1.078125 1.25 1.078125 3.046875q0 2.0 -1.3125 3.265625q-1.296875 1.265625 -3.609375 1.265625q-1.859375 0 -2.9375 -0.5625q-1.0625 -0.5625 -1.65625 -1.640625q-0.59375 -1.0625 -0.59375 -2.328125q0 -2.03125 1.296875 -3.28125q1.3125 -1.25 3.765625 -1.25zm0 1.6875q-1.859375 0 -2.796875 0.796875q-0.921875 0.8125 -0.921875 2.046875q0 1.21875 0.921875 2.03125q0.9375 0.8125 2.84375 0.8125q1.796875 0 2.71875 -0.8125q0.921875 -0.8125 0.921875 -2.03125q0 -1.234375 -0.921875 -2.046875q-0.90625 -0.796875 -2.765625 -0.796875zm-4.84375 9.297592l9.671875 0l0 1.46875l-1.375 0q1.59375 1.0625 1.59375 3.078125q0 0.875 -0.3125 1.609375q-0.3125 0.734375 -0.828125 1.09375q-0.5 0.375 -1.203125 0.515625q-0.453125 0.09375 -1.59375 0.09375l-5.953125 0l0 -1.640625l5.890625 0q1.0 0 1.484375 -0.203125q0.5 -0.1875 0.796875 -0.671875q0.296875 -0.484375 0.296875 -1.140625q0 -1.046875 -0.671875 -1.8125q-0.65625 -0.75 -2.515625 -0.75l-5.28125 0l0 -1.640625z" fill-rule="nonzero"/><path fill="#000000" fill-opacity="0.0" d="m537.93176 102.56431l0 -64.0l-36.251984 0l0 64.0z" fill-rule="evenodd"/><path fill="#000000" d="m512.5899 56.95493l-1.5781555 0l0 -8.828125q0.59375 -0.015625 1.1406555 0.1875q0.90625 0.34375 1.78125 1.078125q0.875 0.75 2.015625 2.15625q1.78125 2.171875 2.828125 2.9375q1.046875 0.765625 1.96875 0.765625q0.984375 0 1.640625 -0.703125q0.671875 -0.6875 0.671875 -1.8125q0 -1.1875 -0.71875 -1.90625q-0.703125 -0.703125 -1.953125 -0.703125l0.171875 -1.6875q1.890625 0.171875 2.875 1.296875q0.984375 1.140625 0.984375 3.03125q0 1.921875 -1.0625 3.046875q-1.0625 1.125 -2.640625 1.125q-0.796875 0 -1.578125 -0.328125q-0.78125 -0.328125 -1.640625 -1.09375q-0.84375 -0.75 -2.34375 -2.53125q-1.234375 -1.46875 -1.6875 -1.890625q-0.4375 -0.421875 -0.875 -0.6875l0 6.546875zm1.921875 1.7663422l0.140625 1.71875q-1.25 0.1875 -1.890625 0.875q-0.625 0.703125 -0.625 1.6875q0 1.1875038 0.890625 2.0000038q0.890625 0.828125 2.359375 0.828125q1.40625 0 2.21875 -0.796875q0.8125 -0.78125 0.8125 -2.0625038q0 -0.78125 -0.359375 -1.421875q-0.359375 -0.640625 -0.9375 -1.0l0.203125 -1.546875l6.859375 1.296875l0 6.640629l-1.5625 0l0 -5.328129l-3.59375 -0.71875q0.84375 1.203125 0.84375 2.515625q0 1.7500038 -1.21875 2.9531288q-1.203125 1.203125 -3.109375 1.203125q-1.8125 0 -3.140625 -1.046875q-1.6250305 -1.296875 -1.6250305 -3.5156288q0 -1.8125 1.015625 -2.96875q1.0312805 -1.15625 2.7187805 -1.3125zm6.578125 18.875721l-0.125 -1.625q0.96875 -0.21875 1.40625 -0.625q0.703125 -0.65625 0.703125 -1.640625q0 -0.78125 -0.4375 -1.375q-0.5625 -0.765625 -1.65625 -1.21875q-1.078125 -0.453125 -3.078125 -0.46875q0.890625 0.59375 1.328125 1.453125q0.4375 0.859375 0.4375 1.796875q0 1.640625 -1.203125 2.78125q-1.203125 1.15625 -3.109375 1.15625q-1.265625 0 -2.34375 -0.546875q-1.0781555 -0.53125 -1.6562805 -1.484375q-0.578125 -0.9375 -0.578125 -2.140625q0 -2.0625 1.5000305 -3.359375q1.515625 -1.28125 4.984375 -1.28125q3.875 0 5.625 1.421875q1.53125 1.25 1.53125 3.375q0 1.5625 -0.890625 2.5625q-0.875 1.015625 -2.4375 1.21875zm-5.75 -6.6875q-0.84375 0 -1.625 0.359375q-0.765625 0.359375 -1.171875 1.0q-0.40625 0.640625 -0.40625 1.359375q0 1.03125 0.828125 1.78125q0.84375 0.75 2.28125 0.75q1.390625 0 2.1875 -0.734375q0.796875 -0.734375 0.796875 -1.859375q0 -1.109375 -0.796875 -1.890625q-0.796875 -0.765625 -2.09375 -0.765625z" fill-rule="nonzero"/><path fill="#000000" fill-opacity="0.0" d="m570.7559 102.56431l0 -64.0l-36.251953 0l0 64.0z" fill-rule="evenodd"/><path fill="#000000" d="m543.83594 54.51743l0 -1.640625l10.453125 0q-0.5625 -0.59375 -1.140625 -1.5625q-0.5625 -0.953125 -0.84375 -1.71875l1.59375 0q0.640625 1.375 1.5625 2.40625q0.921875 1.03125 1.78125 1.453125l0 1.0625l-13.40625 0zm1.578125 12.813221l-1.578125 0l0 -8.828129q0.59375 -0.015625 1.140625 0.1875q0.90625 0.34375 1.78125 1.078125q0.875 0.75 2.015625 2.15625q1.78125 2.1718788 2.828125 2.9375038q1.046875 0.765625 1.96875 0.765625q0.984375 0 1.640625 -0.703125q0.671875 -0.6875 0.671875 -1.8125038q0 -1.1875 -0.71875 -1.90625q-0.703125 -0.703125 -1.953125 -0.703125l0.171875 -1.6875q1.890625 0.171875 2.875 1.296875q0.984375 1.140625 0.984375 3.03125q0 1.9218788 -1.0625 3.0468788q-1.0625 1.125 -2.640625 1.125q-0.796875 0 -1.578125 -0.328125q-0.78125 -0.328125 -1.640625 -1.09375q-0.84375 -0.75 -2.34375 -2.5312538q-1.234375 -1.46875 -1.6875 -1.890625q-0.4375 -0.421875 -0.875 -0.6875l0 6.546879zm5.65625 4.281967q0.375 -1.015625 1.0625 -1.515625q0.703125 -0.484375 1.671875 -0.484375q1.453125 0 2.4375 1.046875q1.0 1.046875 1.0 2.78125q0 1.75 -1.015625 2.8125q-1.015625 1.078125 -2.46875 1.078125q-0.9375 0 -1.625 -0.5q-0.6875 -0.484375 -1.0625 -1.46875q-0.390625 1.21875 -1.28125 1.859375q-0.890625 0.65625 -2.140625 0.65625q-1.703125 0 -2.875 -1.21875q-1.171875 -1.21875 -1.171875 -3.1875q0 -1.984375 1.171875 -3.203125q1.171875 -1.203125 2.921875 -1.203125q1.3125 0 2.1875 0.65625q0.875 0.671875 1.1875 1.890625zm2.78125 -0.328125q-0.9375 0 -1.546875 0.609375q-0.59375 0.609375 -0.59375 1.59375q0 0.9375 0.59375 1.546875q0.59375 0.609375 1.453125 0.609375q0.90625 0 1.515625 -0.625q0.625 -0.625 0.625 -1.5625q0 -0.9375 -0.609375 -1.5625q-0.59375 -0.609375 -1.4375 -0.609375zm-6.15625 -0.53125q-0.703125 0 -1.359375 0.328125q-0.65625 0.34375 -1.015625 1.0q-0.359375 0.65625 -0.359375 1.40625q0 1.171875 0.75 1.9375q0.75 0.765625 1.921875 0.765625q1.1875 0 1.953125 -0.796875q0.78125 -0.78125 0.78125 -1.953125q0 -1.15625 -0.765625 -1.921875q-0.765625 -0.765625 -1.90625 -0.765625z" fill-rule="nonzero"/><path fill="#000000" fill-opacity="0.0" d="m598.02625 102.56431l0 -64.0l-36.251953 0l0 64.0z" fill-rule="evenodd"/><path fill="#000000" d="m581.1844 56.845554l-0.125 -1.625q0.96875 -0.21875 1.40625 -0.625q0.703125 -0.65625 0.703125 -1.640625q0 -0.78125 -0.4375 -1.375q-0.5625 -0.765625 -1.65625 -1.21875q-1.078125 -0.453125 -3.078125 -0.46875q0.890625 0.59375 1.328125 1.453125q0.4375 0.859375 0.4375 1.796875q0 1.640625 -1.203125 2.78125q-1.203125 1.15625 -3.109375 1.15625q-1.265625 0 -2.34375 -0.546875q-1.078125 -0.53125 -1.65625 -1.484375q-0.578125 -0.9375 -0.578125 -2.140625q0 -2.0625 1.5 -3.359375q1.515625 -1.28125 4.984375 -1.28125q3.875 0 5.625 1.421875q1.53125 1.25 1.53125 3.375q0 1.5625 -0.890625 2.5625q-0.875 1.015625 -2.4375 1.21875zm-5.75 -6.6875q-0.84375 0 -1.625 0.359375q-0.765625 0.359375 -1.171875 1.0q-0.40625 0.640625 -0.40625 1.359375q0 1.03125 0.828125 1.78125q0.84375 0.75 2.28125 0.75q1.390625 0 2.1875 -0.734375q0.796875 -0.734375 0.796875 -1.859375q0 -1.109375 -0.796875 -1.890625q-0.796875 -0.765625 -2.09375 -0.765625zm-4.328125 13.813217l3.203125 0l0 -5.796875l1.5 0l8.65625 6.093754l0 1.34375l-8.65625 0l0 1.796875l-1.5 0l0 -1.796875l-3.203125 0l0 -1.6406288zm4.703125 0l6.015625 0l-6.015625 -4.1875l0 4.1875z" fill-rule="nonzero"/><path fill="#000000" fill-opacity="0.0" d="m188.93439 0l173.00787 0l0 45.070866l-173.00787 0z" fill-rule="evenodd"/><path fill="#000000" d="m256.7198 26.919998l0 -13.359375l1.765625 0l0 5.484375l6.9375 0l0 -5.484375l1.765625 0l0 13.359375l-1.765625 0l0 -6.296875l-6.9375 0l0 6.296875l-1.765625 0zm19.519836 -1.1875q-0.921875 0.765625 -1.765625 1.09375q-0.828125 0.3125 -1.796875 0.3125q-1.59375 0 -2.453125 -0.78125q-0.859375 -0.78125 -0.859375 -1.984375q0 -0.71875 0.328125 -1.296875q0.328125 -0.59375 0.84375 -0.9375q0.53125 -0.359375 1.1875 -0.546875q0.46875 -0.125 1.453125 -0.25q1.984375 -0.234375 2.921875 -0.5625q0.015625 -0.34375 0.015625 -0.421875q0 -1.0 -0.46875 -1.421875q-0.625 -0.546875 -1.875 -0.546875q-1.15625 0 -1.703125 0.40625q-0.546875 0.40625 -0.8125 1.421875l-1.609375 -0.21875q0.21875 -1.015625 0.71875 -1.640625q0.5 -0.640625 1.453125 -0.984375q0.953125 -0.34375 2.1875 -0.34375q1.25 0 2.015625 0.296875q0.78125 0.28125 1.140625 0.734375q0.375 0.4375 0.515625 1.109375q0.078125 0.421875 0.078125 1.515625l0 2.1875q0 2.28125 0.109375 2.890625q0.109375 0.59375 0.40625 1.15625l-1.703125 0q-0.265625 -0.515625 -0.328125 -1.1875zm-0.140625 -3.671875q-0.890625 0.375 -2.671875 0.625q-1.015625 0.140625 -1.4375 0.328125q-0.421875 0.1875 -0.65625 0.53125q-0.21875 0.34375 -0.21875 0.78125q0 0.65625 0.5 1.09375q0.5 0.4375 1.453125 0.4375q0.9375 0 1.671875 -0.40625q0.75 -0.421875 1.09375 -1.140625q0.265625 -0.5625 0.265625 -1.640625l0 -0.609375zm10.516327 3.671875q-0.921875 0.765625 -1.765625 1.09375q-0.828125 0.3125 -1.796875 0.3125q-1.59375 0 -2.453125 -0.78125q-0.859375 -0.78125 -0.859375 -1.984375q0 -0.71875 0.328125 -1.296875q0.328125 -0.59375 0.84375 -0.9375q0.53125 -0.359375 1.1875 -0.546875q0.46875 -0.125 1.453125 -0.25q1.984375 -0.234375 2.921875 -0.5625q0.015625 -0.34375 0.015625 -0.421875q0 -1.0 -0.46875 -1.421875q-0.625 -0.546875 -1.875 -0.546875q-1.15625 0 -1.703125 0.40625q-0.546875 0.40625 -0.8125 1.421875l-1.609375 -0.21875q0.21875 -1.015625 0.71875 -1.640625q0.5 -0.640625 1.453125 -0.984375q0.953125 -0.34375 2.1875 -0.34375q1.25 0 2.015625 0.296875q0.78125 0.28125 1.140625 0.734375q0.375 0.4375 0.515625 1.109375q0.078125 0.421875 0.078125 1.515625l0 2.1875q0 2.28125 0.109375 2.890625q0.109375 0.59375 0.40625 1.15625l-1.703125 0q-0.265625 -0.515625 -0.328125 -1.1875zm-0.140625 -3.671875q-0.890625 0.375 -2.671875 0.625q-1.015625 0.140625 -1.4375 0.328125q-0.421875 0.1875 -0.65625 0.53125q-0.21875 0.34375 -0.21875 0.78125q0 0.65625 0.5 1.09375q0.5 0.4375 1.453125 0.4375q0.9375 0 1.671875 -0.40625q0.75 -0.421875 1.09375 -1.140625q0.265625 -0.5625 0.265625 -1.640625l0 -0.609375zm4.1882324 4.859375l0 -9.671875l1.46875 0l0 1.46875q0.5625 -1.03125 1.03125 -1.359375q0.484375 -0.328125 1.0625 -0.328125q0.828125 0 1.6875 0.53125l-0.5625 1.515625q-0.609375 -0.359375 -1.203125 -0.359375q-0.546875 0 -0.96875 0.328125q-0.421875 0.328125 -0.609375 0.890625q-0.28125 0.875 -0.28125 1.921875l0 5.0625l-1.625 0z" fill-rule="nonzero"/><path fill="#000000" d="m238.12807 49.319996l0 -11.78125l-4.40625 0l0 -1.578125l10.578125 0l0 1.578125l-4.40625 0l0 11.78125l-1.765625 0zm7.0782776 0l0 -9.671875l1.46875 0l0 1.46875q0.5625 -1.03125 1.03125 -1.359375q0.484375 -0.328125 1.0625 -0.328125q0.828125 0 1.6875 0.53125l-0.5625 1.515625q-0.609375 -0.359375 -1.203125 -0.359375q-0.546875 0 -0.96875 0.328125q-0.421875 0.328125 -0.609375 0.890625q-0.28125 0.875 -0.28125 1.921875l0 5.0625l-1.625 0zm12.540787 -1.1875q-0.921875 0.765625 -1.7656097 1.09375q-0.828125 0.3125 -1.796875 0.3125q-1.59375 0 -2.453125 -0.78125q-0.859375 -0.78125 -0.859375 -1.984375q0 -0.71875 0.328125 -1.296875q0.328125 -0.59375 0.84375 -0.9375q0.53125 -0.359375 1.1875 -0.546875q0.46875 -0.125 1.453125 -0.25q1.9843597 -0.234375 2.9218597 -0.5625q0.015625 -0.34375 0.015625 -0.421875q0 -1.0 -0.46875 -1.421875q-0.625 -0.546875 -1.8749847 -0.546875q-1.15625 0 -1.703125 0.40625q-0.546875 0.40625 -0.8125 1.421875l-1.609375 -0.21875q0.21875 -1.015625 0.71875 -1.640625q0.5 -0.640625 1.453125 -0.984375q0.953125 -0.34375 2.1875 -0.34375q1.2499847 0 2.0156097 0.296875q0.78125 0.28125 1.140625 0.734375q0.375 0.4375 0.515625 1.109375q0.078125 0.421875 0.078125 1.515625l0 2.1875q0 2.28125 0.109375 2.890625q0.109375 0.59375 0.40625 1.15625l-1.703125 0q-0.265625 -0.515625 -0.328125 -1.1875zm-0.140625 -3.671875q-0.890625 0.375 -2.6718597 0.625q-1.015625 0.140625 -1.4375 0.328125q-0.421875 0.1875 -0.65625 0.53125q-0.21875 0.34375 -0.21875 0.78125q0 0.65625 0.5 1.09375q0.5 0.4375 1.453125 0.4375q0.9375 0 1.6718597 -0.40625q0.75 -0.421875 1.09375 -1.140625q0.265625 -0.5625 0.265625 -1.640625l0 -0.609375zm4.2038574 4.859375l0 -9.671875l1.46875 0l0 1.375q1.0625 -1.59375 3.078125 -1.59375q0.875 0 1.609375 0.3125q0.734375 0.3125 1.09375 0.828125q0.375 0.5 0.515625 1.203125q0.09375 0.453125 0.09375 1.59375l0 5.953125l-1.640625 0l0 -5.890625q0 -1.0 -0.203125 -1.484375q-0.1875 -0.5 -0.671875 -0.796875q-0.484375 -0.296875 -1.140625 -0.296875q-1.046875 0 -1.8125 0.671875q-0.75 0.65625 -0.75 2.515625l0 5.28125l-1.640625 0zm9.719452 -2.890625l1.625 -0.25q0.125 0.96875 0.75 1.5q0.625 0.515625 1.75 0.515625q1.125 0 1.671875 -0.453125q0.546875 -0.46875 0.546875 -1.09375q0 -0.546875 -0.484375 -0.875q-0.328125 -0.21875 -1.671875 -0.546875q-1.8125 -0.46875 -2.515625 -0.796875q-0.6875 -0.328125 -1.046875 -0.90625q-0.359375 -0.59375 -0.359375 -1.3125q0 -0.640625 0.296875 -1.1875q0.296875 -0.5625 0.8125 -0.921875q0.375 -0.28125 1.03125 -0.46875q0.671875 -0.203125 1.421875 -0.203125q1.140625 0 2.0 0.328125q0.859375 0.328125 1.265625 0.890625q0.421875 0.5625 0.578125 1.5l-1.609375 0.21875q-0.109375 -0.75 -0.640625 -1.171875q-0.515625 -0.421875 -1.46875 -0.421875q-1.140625 0 -1.625 0.375q-0.46875 0.375 -0.46875 0.875q0 0.3125 0.1875 0.578125q0.203125 0.265625 0.640625 0.4375q0.234375 0.09375 1.4375 0.421875q1.75 0.453125 2.4375 0.75q0.6875 0.296875 1.078125 0.859375q0.390625 0.5625 0.390625 1.40625q0 0.828125 -0.484375 1.546875q-0.46875 0.71875 -1.375 1.125q-0.90625 0.390625 -2.046875 0.390625q-1.875 0 -2.875 -0.78125q-0.984375 -0.78125 -1.25 -2.328125zm10.375 2.890625l0 -8.40625l-1.453125 0l0 -1.265625l1.453125 0l0 -1.03125q0 -0.96875 0.171875 -1.453125q0.234375 -0.640625 0.828125 -1.03125q0.59375 -0.390625 1.671875 -0.390625q0.6875 0 1.53125 0.15625l-0.25 1.4375q-0.5 -0.09375 -0.953125 -0.09375q-0.75 0 -1.0625 0.328125q-0.3125 0.3125 -0.3125 1.1875l0 0.890625l1.890625 0l0 1.265625l-1.890625 0l0 8.40625l-1.625 0zm4.183319 -4.84375q0 -2.6875 1.484375 -3.96875q1.25 -1.078125 3.046875 -1.078125q2.0 0 3.265625 1.3125q1.265625 1.296875 1.265625 3.609375q0 1.859375 -0.5625 2.9375q-0.5625 1.0625 -1.640625 1.65625q-1.0625 0.59375 -2.328125 0.59375q-2.03125 0 -3.28125 -1.296875q-1.25 -1.3125 -1.25 -3.765625zm1.6875 0q0 1.859375 0.796875 2.796875q0.8125 0.921875 2.046875 0.921875q1.21875 0 2.03125 -0.921875q0.8125 -0.9375 0.8125 -2.84375q0 -1.796875 -0.8125 -2.71875q-0.8125 -0.921875 -2.03125 -0.921875q-1.234375 0 -2.046875 0.921875q-0.796875 0.90625 -0.796875 2.765625zm9.281952 4.84375l0 -9.671875l1.46875 0l0 1.46875q0.5625 -1.03125 1.03125 -1.359375q0.484375 -0.328125 1.0625 -0.328125q0.828125 0 1.6875 0.53125l-0.5625 1.515625q-0.609375 -0.359375 -1.203125 -0.359375q-0.546875 0 -0.96875 0.328125q-0.421875 0.328125 -0.609375 0.890625q-0.28125 0.875 -0.28125 1.921875l0 5.0625l-1.625 0zm6.228302 0l0 -9.671875l1.46875 0l0 1.359375q0.453125 -0.71875 1.203125 -1.140625q0.765625 -0.4375 1.71875 -0.4375q1.078125 0 1.765625 0.453125q0.6875 0.4375 0.96875 1.234375q1.15625 -1.6875 2.984375 -1.6875q1.453125 0 2.21875 0.796875q0.78125 0.796875 0.78125 2.453125l0 6.640625l-1.640625 0l0 -6.09375q0 -0.984375 -0.15625 -1.40625q-0.15625 -0.4375 -0.578125 -0.703125q-0.421875 -0.265625 -0.984375 -0.265625q-1.015625 0 -1.6875 0.6875q-0.671875 0.671875 -0.671875 2.15625l0 5.625l-1.640625 0l0 -6.28125q0 -1.09375 -0.40625 -1.640625q-0.40625 -0.546875 -1.3125 -0.546875q-0.6875 0 -1.28125 0.359375q-0.59375 0.359375 -0.859375 1.0625q-0.25 0.703125 -0.25 2.03125l0 5.015625l-1.640625 0z" fill-rule="nonzero"/><path fill="#000000" fill-opacity="0.0" d="m222.3307 68.72179l99.65355 0.18897247" fill-rule="evenodd"/><path stroke="#000000" stroke-width="1.0" stroke-linejoin="round" stroke-linecap="butt" d="m222.3307 68.72179l99.65355 0.18897247" fill-rule="evenodd"/><path fill="#000000" fill-opacity="0.0" d="m221.71654 80.72179l99.65355 0.18897247" fill-rule="evenodd"/><path stroke="#000000" stroke-width="1.0" stroke-linejoin="round" stroke-linecap="butt" d="m221.71654 80.72179l99.65355 0.18897247" fill-rule="evenodd"/><path fill="#000000" fill-opacity="0.0" d="m221.71654 92.72179l99.65355 0.18897247" fill-rule="evenodd"/><path stroke="#000000" stroke-width="1.0" stroke-linejoin="round" stroke-linecap="butt" d="m221.71654 92.72179l99.65355 0.18897247" fill-rule="evenodd"/><path fill="#000000" fill-opacity="0.0" d="m223.66405 104.72179l99.65355 0.18897247" fill-rule="evenodd"/><path stroke="#000000" stroke-width="1.0" stroke-linejoin="round" stroke-linecap="butt" d="m223.66405 104.72179l99.65355 0.18897247" fill-rule="evenodd"/><path fill="#000000" fill-opacity="0.0" d="m221.71654 145.72179l99.65355 0.1889801" fill-rule="evenodd"/><path stroke="#000000" stroke-width="1.0" stroke-linejoin="round" stroke-linecap="butt" d="m221.71654 145.72179l99.65355 0.1889801" fill-rule="evenodd"/><path fill="#000000" fill-opacity="0.0" d="m221.71654 158.72179l99.65355 0.1889801" fill-rule="evenodd"/><path stroke="#000000" stroke-width="1.0" stroke-linejoin="round" stroke-linecap="butt" d="m221.71654 158.72179l99.65355 0.1889801" fill-rule="evenodd"/><path fill="#000000" fill-opacity="0.0" d="m223.66405 171.72179l99.65355 0.1889801" fill-rule="evenodd"/><path stroke="#000000" stroke-width="1.0" stroke-linejoin="round" stroke-linecap="butt" d="m223.66405 171.72179l99.65355 0.1889801" fill-rule="evenodd"/><path fill="#000000" fill-opacity="0.0" d="m221.71654 184.72179l99.65355 0.1889801" fill-rule="evenodd"/><path stroke="#000000" stroke-width="1.0" stroke-linejoin="round" stroke-linecap="butt" d="m221.71654 184.72179l99.65355 0.1889801" fill-rule="evenodd"/><path fill="#000000" fill-opacity="0.0" d="m220.55643 238.72179l99.653534 0.1889801" fill-rule="evenodd"/><path stroke="#000000" stroke-width="1.0" stroke-linejoin="round" stroke-linecap="butt" d="m220.55643 238.72179l99.653534 0.1889801" fill-rule="evenodd"/><path fill="#000000" fill-opacity="0.0" d="m220.55643 250.72179l99.653534 0.1889801" fill-rule="evenodd"/><path stroke="#000000" stroke-width="1.0" stroke-linejoin="round" stroke-linecap="butt" d="m220.55643 250.72179l99.653534 0.1889801" fill-rule="evenodd"/><path fill="#000000" fill-opacity="0.0" d="m220.55643 262.72177l99.653534 0.18899536" fill-rule="evenodd"/><path stroke="#000000" stroke-width="1.0" stroke-linejoin="round" stroke-linecap="butt" d="m220.55643 262.72177l99.653534 0.18899536" fill-rule="evenodd"/><path fill="#000000" fill-opacity="0.0" d="m283.49606 68.92126l17.51181 23.496063" fill-rule="evenodd"/><path stroke="#000000" stroke-width="1.0" stroke-linejoin="round" stroke-linecap="butt" d="m283.49606 68.92126l15.463837 20.748222" fill-rule="evenodd"/><path fill="#000000" stroke="#000000" stroke-width="1.0" stroke-linecap="butt" d="m298.95987 89.66948l-1.5737305 -0.2296524l2.748108 1.805336l-0.94470215 -3.1494217z" fill-rule="evenodd"/><path fill="#000000" fill-opacity="0.0" d="m300.49606 69.419945l-17.984253 23.496063" fill-rule="evenodd"/><path stroke="#000000" stroke-width="1.0" stroke-linejoin="round" stroke-linecap="butt" d="m300.49606 69.419945l-14.337402 18.731544" fill-rule="evenodd"/><path fill="#000000" stroke="#000000" stroke-width="1.0" stroke-linecap="butt" d="m284.84702 87.14756l-1.4466553 4.6075745l4.069916 -2.5997086z" fill-rule="evenodd"/><path fill="#000000" fill-opacity="0.0" d="m231.49606 67.92126l40.503937 36.503937" fill-rule="evenodd"/><path stroke="#000000" stroke-width="1.0" stroke-linejoin="round" stroke-linecap="butt" d="m231.49606 67.92126l36.046936 32.487083" fill-rule="evenodd"/><path fill="#000000" stroke="#000000" stroke-width="1.0" stroke-linecap="butt" d="m266.4372 101.63531l4.4768677 1.8111801l-2.2652893 -4.265106z" fill-rule="evenodd"/><path fill="#000000" fill-opacity="0.0" d="m260.49606 68.419945l35.496063 77.51182" fill-rule="evenodd"/><path stroke="#000000" stroke-width="1.0" stroke-linejoin="round" stroke-linecap="butt" d="m260.49606 68.419945l32.997894 72.05662" fill-rule="evenodd"/><path fill="#000000" stroke="#000000" stroke-width="1.0" stroke-linecap="butt" d="m291.9922 141.16429l3.3912659 3.4383087l-0.38775635 -4.813751z" fill-rule="evenodd"/><path fill="#000000" fill-opacity="0.0" d="m225.49606 104.419945l22.48819 -11.496063" fill-rule="evenodd"/><path stroke="#000000" stroke-width="1.0" stroke-linejoin="round" stroke-linecap="butt" d="m225.49606 104.419945l17.145798 -8.764999" fill-rule="evenodd"/><path fill="#000000" stroke="#000000" stroke-width="1.0" stroke-linecap="butt" d="m243.39368 97.12565l3.2888947 -3.5363388l-4.792557 0.59493256z" fill-rule="evenodd"/><path fill="#000000" fill-opacity="0.0" d="m229.99738 92.419945l30.48819 14.015747" fill-rule="evenodd"/><path stroke="#000000" stroke-width="1.0" stroke-linejoin="round" stroke-linecap="butt" d="m229.99738 92.419945l25.036636 11.509621" fill-rule="evenodd"/><path fill="#000000" stroke="#000000" stroke-width="1.0" stroke-linecap="butt" d="m254.34412 105.43031l4.8131714 0.39476013l-3.4333496 -3.3962555z" fill-rule="evenodd"/><path fill="#000000" fill-opacity="0.0" d="m240.99738 81.92126l39.496063 102.015755" fill-rule="evenodd"/><path stroke="#000000" stroke-width="1.0" stroke-linejoin="round" stroke-linecap="butt" d="m240.99738 81.92126l37.329803 96.42046" fill-rule="evenodd"/><path fill="#000000" stroke="#000000" stroke-width="1.0" stroke-linecap="butt" d="m276.78687 178.93806l3.178772 3.6356506l-0.09814453 -4.828354z" fill-rule="evenodd"/><path fill="#000000" fill-opacity="0.0" d="m285.49606 146.92126l-35.496063 37.51181" fill-rule="evenodd"/><path stroke="#000000" stroke-width="1.0" stroke-linejoin="round" stroke-linecap="butt" d="m285.49606 146.92126l-31.372131 33.153687" fill-rule="evenodd"/><path fill="#000000" stroke="#000000" stroke-width="1.0" stroke-linecap="butt" d="m252.9242 178.93968l-1.9194031 4.431534l4.318878 -2.1609955z" fill-rule="evenodd"/><path fill="#000000" fill-opacity="0.0" d="m231.99738 184.92126l78.99213 -91.49607" fill-rule="evenodd"/><path stroke="#000000" stroke-width="1.0" stroke-linejoin="round" stroke-linecap="butt" d="m231.99738 184.92126l75.07117 -86.95446" fill-rule="evenodd"/><path fill="#000000" stroke="#000000" stroke-width="1.0" stroke-linecap="butt" d="m308.31882 99.046196l1.715332 -4.514435l-4.215851 2.3556519z" fill-rule="evenodd"/><path fill="#000000" fill-opacity="0.0" d="m307.99738 146.41995l0.50393677 37.51181" fill-rule="evenodd"/><path stroke="#000000" stroke-width="1.0" stroke-linejoin="round" stroke-linecap="butt" d="m307.99738 146.41995l0.42333984 31.512344" fill-rule="evenodd"/><path fill="#000000" stroke="#000000" stroke-width="1.0" stroke-linecap="butt" d="m306.76913 177.95448l1.7125549 4.515503l1.5906067 -4.5598755z" fill-rule="evenodd"/><path fill="#000000" fill-opacity="0.0" d="m298.99738 158.92126l18.015747 26.015747" fill-rule="evenodd"/><path stroke="#000000" stroke-width="1.0" stroke-linejoin="round" stroke-linecap="butt" d="m298.99738 158.92126l14.5998535 21.083023" fill-rule="evenodd"/><path fill="#000000" stroke="#000000" stroke-width="1.0" stroke-linecap="butt" d="m312.23932 180.94464l3.9415283 2.790512l-1.2256775 -4.671219z" fill-rule="evenodd"/><path fill="#000000" fill-opacity="0.0" d="m234.99738 239.41995l57.007874 25.007874" fill-rule="evenodd"/><path stroke="#000000" stroke-width="1.0" stroke-linejoin="round" stroke-linecap="butt" d="m234.99738 239.41995l51.513306 22.597534" fill-rule="evenodd"/><path fill="#000000" stroke="#000000" stroke-width="1.0" stroke-linecap="butt" d="m285.84714 263.5301l4.8193665 0.31045532l-3.492279 -3.3356323z" fill-rule="evenodd"/><path fill="#000000" fill-opacity="0.0" d="m229.99738 251.41995l18.992126 11.496063" fill-rule="evenodd"/><path stroke="#000000" stroke-width="1.0" stroke-linejoin="round" stroke-linecap="butt" d="m229.99738 251.41995l13.859238 8.389069" fill-rule="evenodd"/><path fill="#000000" stroke="#000000" stroke-width="1.0" stroke-linecap="butt" d="m243.00128 261.22205l4.7375793 0.9369507l-3.026947 -3.7630005z" fill-rule="evenodd"/><path fill="#000000" fill-opacity="0.0" d="m224.99738 262.92126l20.503937 -12.0" fill-rule="evenodd"/><path stroke="#000000" stroke-width="1.0" stroke-linejoin="round" stroke-linecap="butt" d="m224.99738 262.92126l15.325607 -8.969376" fill-rule="evenodd"/><path fill="#000000" stroke="#000000" stroke-width="1.0" stroke-linecap="butt" d="m241.15727 255.37744l3.0823364 -3.7177582l-4.750931 0.86668396z" fill-rule="evenodd"/><path fill="#000000" fill-opacity="0.0" d="m255.99738 262.92126l28.0 -24.0" fill-rule="evenodd"/><path stroke="#000000" stroke-width="1.0" stroke-linejoin="round" stroke-linecap="butt" d="m255.99738 262.92126l23.444458 -20.095245" fill-rule="evenodd"/><path fill="#000000" stroke="#000000" stroke-width="1.0" stroke-linecap="butt" d="m280.51675 244.0801l2.3706665 -4.207443l-4.520508 1.6992645z" fill-rule="evenodd"/><path fill="#000000" fill-opacity="0.0" d="m245.49606 146.41995l50.992126 104.50394" fill-rule="evenodd"/><path stroke="#000000" stroke-width="1.0" stroke-linejoin="round" stroke-linecap="butt" d="m245.49606 146.41995l48.360962 99.11163" fill-rule="evenodd"/><path fill="#000000" stroke="#000000" stroke-width="1.0" stroke-linecap="butt" d="m292.3726 246.25589l3.4745178 3.3541565l-0.50561523 -4.8027954z" fill-rule="evenodd"/><path fill="#000000" fill-opacity="0.0" d="m224.99738 145.41995l33.51181 93.51181" fill-rule="evenodd"/><path stroke="#000000" stroke-width="1.0" stroke-linejoin="round" stroke-linecap="butt" d="m224.99738 145.41995l31.48767 87.863556" fill-rule="evenodd"/><path fill="#000000" stroke="#000000" stroke-width="1.0" stroke-linecap="butt" d="m254.93013 233.84073l3.0858612 3.7148285l0.023925781 -4.8292847z" fill-rule="evenodd"/><path fill="#000000" fill-opacity="0.0" d="m63.496063 122.419945l0 67.81103l28.0 0l0 -67.81103z" fill-rule="evenodd"/><path fill="#000000" d="m92.97606 179.29347l-2.140625 0l0 -2.140625l2.140625 0l0 2.140625zm0 -17.776932l-2.140625 0l0 -2.140625l2.140625 0l0 2.140625zm0 -17.776932l-2.140625 0l0 -2.140625l2.140625 0l0 2.140625z" fill-rule="nonzero"/><path fill="#000000" fill-opacity="0.0" d="m154.49475 123.538055l0 67.81102l28.0 0l0 -67.81102z" fill-rule="evenodd"/><path fill="#000000" d="m183.97475 180.41158l-2.140625 0l0 -2.140625l2.140625 0l0 2.140625zm0 -17.776932l-2.140625 0l0 -2.140625l2.140625 0l0 2.140625zm0 -17.776932l-2.140625 0l0 -2.140625l2.140625 0l0 2.140625z" fill-rule="nonzero"/><path fill="#000000" fill-opacity="0.0" d="m328.22177 120.431755l0 67.81103l28.0 0l0 -67.81103z" fill-rule="evenodd"/><path fill="#000000" d="m357.70178 177.30528l-2.140625 0l0 -2.140625l2.140625 0l0 2.140625zm0 -17.776932l-2.140625 0l0 -2.140625l2.140625 0l0 2.140625zm0 -17.776932l-2.140625 0l0 -2.140625l2.140625 0l0 2.140625z" fill-rule="nonzero"/><path fill="#000000" fill-opacity="0.0" d="m438.72833 117.838585l0 67.81103l28.0 0l0 -67.81103z" fill-rule="evenodd"/><path fill="#000000" d="m468.20834 174.71211l-2.140625 0l0 -2.140625l2.140625 0l0 2.140625zm0 -17.776932l-2.140625 0l0 -2.140625l2.140625 0l0 2.140625zm0 -17.776932l-2.140625 0l0 -2.140625l2.140625 0l0 2.140625z" fill-rule="nonzero"/><path fill="#000000" fill-opacity="0.0" d="m509.99738 226.41995l114.99213 0.50393677" fill-rule="evenodd"/><path stroke="#000000" stroke-width="1.0" stroke-linejoin="round" stroke-linecap="butt" d="m509.99738 226.41995l108.99219 0.47764587" fill-rule="evenodd"/><path fill="#000000" stroke="#000000" stroke-width="1.0" stroke-linecap="butt" d="m618.9823 228.5493l4.545288 -1.6318207l-4.5307617 -1.6716003z" fill-rule="evenodd"/><path fill="#000000" fill-opacity="0.0" d="m528.46716 219.41995l114.99213 0l0 20.0l-114.99213 0z" fill-rule="evenodd"/><path fill="#000000" d="m538.3109 242.04308l1.65625 -0.140625q0.125 1.0 0.546875 1.640625q0.4375 0.640625 1.34375 1.046875q0.921875 0.390625 2.0625 0.390625q1.0 0 1.78125 -0.296875q0.78125 -0.296875 1.15625 -0.8125q0.375 -0.53125 0.375 -1.15625q0 -0.625 -0.375 -1.09375q-0.359375 -0.46875 -1.1875 -0.796875q-0.546875 -0.203125 -2.390625 -0.640625q-1.828125 -0.453125 -2.5625 -0.84375q-0.96875 -0.5 -1.4375 -1.234375q-0.46875 -0.75 -0.46875 -1.671875q0 -1.0 0.578125 -1.875q0.578125 -0.890625 1.671875 -1.34375q1.109375 -0.453125 2.453125 -0.453125q1.484375 0 2.609375 0.484375q1.140625 0.46875 1.75 1.40625q0.609375 0.921875 0.65625 2.09375l-1.6875 0.125q-0.140625 -1.265625 -0.9375 -1.90625q-0.78125 -0.65625 -2.3125 -0.65625q-1.609375 0 -2.34375 0.59375q-0.734375 0.59375 -0.734375 1.421875q0 0.71875 0.53125 1.171875q0.5 0.46875 2.65625 0.96875q2.15625 0.484375 2.953125 0.84375q1.171875 0.53125 1.71875 1.359375q0.5625 0.828125 0.5625 1.90625q0 1.0625 -0.609375 2.015625q-0.609375 0.9375 -1.75 1.46875q-1.140625 0.515625 -2.578125 0.515625q-1.8125 0 -3.046875 -0.53125q-1.21875 -0.53125 -1.921875 -1.59375q-0.6875 -1.0625 -0.71875 -2.40625zm19.146729 0.75l1.609375 0.21875q-0.265625 1.65625 -1.359375 2.609375q-1.078125 0.9375 -2.671875 0.9375q-1.984375 0 -3.1875 -1.296875q-1.203125 -1.296875 -1.203125 -3.71875q0 -1.578125 0.515625 -2.75q0.515625 -1.171875 1.578125 -1.75q1.0625 -0.59375 2.3125 -0.59375q1.578125 0 2.578125 0.796875q1.0 0.796875 1.28125 2.265625l-1.59375 0.234375q-0.234375 -0.96875 -0.8125 -1.453125q-0.578125 -0.5 -1.390625 -0.5q-1.234375 0 -2.015625 0.890625q-0.78125 0.890625 -0.78125 2.8125q0 1.953125 0.75 2.84375q0.75 0.875 1.953125 0.875q0.96875 0 1.609375 -0.59375q0.65625 -0.59375 0.828125 -1.828125zm9.328125 2.359375q-0.921875 0.765625 -1.765625 1.09375q-0.828125 0.3125 -1.796875 0.3125q-1.59375 0 -2.453125 -0.78125q-0.859375 -0.78125 -0.859375 -1.984375q0 -0.71875 0.328125 -1.296875q0.328125 -0.59375 0.84375 -0.9375q0.53125 -0.359375 1.1875 -0.546875q0.46875 -0.125 1.453125 -0.25q1.984375 -0.234375 2.921875 -0.5625q0.015625 -0.34375 0.015625 -0.421875q0 -1.0 -0.46875 -1.421875q-0.625 -0.546875 -1.875 -0.546875q-1.15625 0 -1.703125 0.40625q-0.546875 0.40625 -0.8125 1.421875l-1.609375 -0.21875q0.21875 -1.015625 0.71875 -1.640625q0.5 -0.640625 1.453125 -0.984375q0.953125 -0.34375 2.1875 -0.34375q1.25 0 2.015625 0.296875q0.78125 0.28125 1.140625 0.734375q0.375 0.4375 0.515625 1.109375q0.078125 0.421875 0.078125 1.515625l0 2.1875q0 2.28125 0.109375 2.890625q0.109375 0.59375 0.40625 1.15625l-1.703125 0q-0.265625 -0.515625 -0.328125 -1.1875zm-0.140625 -3.671875q-0.890625 0.375 -2.671875 0.625q-1.015625 0.140625 -1.4375 0.328125q-0.421875 0.1875 -0.65625 0.53125q-0.21875 0.34375 -0.21875 0.78125q0 0.65625 0.5 1.09375q0.5 0.4375 1.453125 0.4375q0.9375 0 1.671875 -0.40625q0.75 -0.421875 1.09375 -1.140625q0.265625 -0.5625 0.265625 -1.640625l0 -0.609375zm4.1569824 4.859375l0 -13.359375l1.640625 0l0 13.359375l-1.640625 0zm4.1916504 -11.46875l0 -1.890625l1.640625 0l0 1.890625l-1.640625 0zm0 11.46875l0 -9.671875l1.640625 0l0 9.671875l-1.640625 0zm4.1448364 0l0 -9.671875l1.46875 0l0 1.375q1.0625 -1.59375 3.078125 -1.59375q0.875 0 1.609375 0.3125q0.734375 0.3125 1.09375 0.828125q0.375 0.5 0.515625 1.203125q0.09375 0.453125 0.09375 1.59375l0 5.953125l-1.640625 0l0 -5.890625q0 -1.0 -0.203125 -1.484375q-0.1875 -0.5 -0.671875 -0.796875q-0.484375 -0.296875 -1.140625 -0.296875q-1.046875 0 -1.8125 0.671875q-0.75 0.65625 -0.75 2.515625l0 5.28125l-1.640625 0zm10.063232 0.796875l1.59375 0.234375q0.109375 0.75 0.5625 1.078125q0.609375 0.453125 1.671875 0.453125q1.140625 0 1.75 -0.453125q0.625 -0.453125 0.84375 -1.265625q0.125 -0.5 0.109375 -2.109375q-1.0625 1.265625 -2.671875 1.265625q-2.0 0 -3.09375 -1.4375q-1.09375 -1.4375 -1.09375 -3.453125q0 -1.390625 0.5 -2.5625q0.515625 -1.171875 1.453125 -1.796875q0.953125 -0.640625 2.25 -0.640625q1.703125 0 2.8125 1.375l0 -1.15625l1.515625 0l0 8.359375q0 2.265625 -0.46875 3.203125q-0.453125 0.9375 -1.453125 1.484375q-0.984375 0.546875 -2.453125 0.546875q-1.71875 0 -2.796875 -0.78125q-1.0625 -0.765625 -1.03125 -2.34375zm1.359375 -5.8125q0 1.90625 0.75 2.78125q0.765625 0.875 1.90625 0.875q1.125 0 1.890625 -0.859375q0.765625 -0.875 0.765625 -2.734375q0 -1.78125 -0.796875 -2.671875q-0.78125 -0.90625 -1.890625 -0.90625q-1.09375 0 -1.859375 0.890625q-0.765625 0.875 -0.765625 2.625z" fill-rule="nonzero"/></g></svg>